<svg id="svg" version="1.1" xmlns="http://www.w3.org/2000/svg" xmlns:xlink="http://www.w3.org/1999/xlink" width="400" height="440.133779264214" viewBox="0, 0, 400,440.133779264214"><g id="svgg"><path id="path0" d="M108.000 22.847 C 108.000 23.096,107.647 23.201,107.200 23.084 C 106.760 22.969,106.400 23.006,106.400 23.167 C 106.400 23.328,105.050 23.883,103.400 24.400 C 101.750 24.917,100.400 25.500,100.400 25.694 C 100.400 25.888,100.252 25.956,100.071 25.844 C 99.891 25.732,99.273 25.884,98.700 26.182 C 98.126 26.480,97.554 26.620,97.428 26.495 C 97.303 26.369,97.200 26.471,97.200 26.721 C 97.200 26.971,96.930 27.071,96.600 26.945 C 96.270 26.818,96.000 26.876,96.000 27.074 C 96.000 27.271,94.470 27.963,92.600 28.612 C 90.730 29.260,89.200 29.911,89.200 30.058 C 89.200 30.205,88.867 30.238,88.460 30.131 C 88.052 30.025,87.422 30.235,87.060 30.598 C 86.697 30.960,86.397 31.109,86.394 30.929 C 86.391 30.748,86.256 30.798,86.094 31.040 C 85.932 31.283,84.317 31.972,82.504 32.572 C 80.691 33.172,79.104 33.832,78.977 34.038 C 78.849 34.244,78.577 34.309,78.372 34.183 C 78.168 34.056,77.997 34.188,77.994 34.476 C 77.989 34.863,77.890 34.845,77.615 34.411 C 77.296 33.907,77.205 33.921,76.979 34.511 C 76.833 34.890,76.470 35.200,76.171 35.200 C 74.369 35.200,74.571 42.345,76.437 44.637 C 76.633 44.877,76.675 45.192,76.530 45.337 C 76.385 45.482,76.487 45.600,76.757 45.600 C 77.027 45.600,77.136 45.780,77.000 46.000 C 76.864 46.220,76.963 46.400,77.219 46.400 C 77.476 46.400,77.582 46.670,77.455 47.000 C 77.314 47.369,77.456 47.600,77.825 47.600 C 78.155 47.600,78.529 47.870,78.655 48.200 C 78.993 49.081,79.589 48.979,85.643 47.000 C 88.672 46.010,91.597 45.200,92.142 45.200 C 93.658 45.200,94.400 44.792,94.400 43.957 C 94.400 43.541,94.265 43.199,94.100 43.199 C 93.935 43.198,93.791 42.478,93.781 41.599 C 93.770 40.719,93.905 40.000,94.081 40.000 C 94.256 40.000,94.400 39.811,94.400 39.581 C 94.400 39.032,96.456 37.229,97.100 37.213 C 97.375 37.206,97.600 37.020,97.600 36.800 C 97.600 36.580,97.876 36.400,98.213 36.400 C 98.549 36.400,98.929 36.129,99.056 35.797 C 99.183 35.466,100.663 34.544,102.344 33.748 C 104.025 32.953,105.490 32.162,105.600 31.991 C 105.710 31.820,106.160 31.617,106.600 31.540 C 107.040 31.463,107.490 31.283,107.600 31.139 C 107.710 30.995,108.835 30.420,110.100 29.861 C 112.603 28.754,113.073 27.515,111.937 25.021 C 111.247 23.507,108.000 21.714,108.000 22.847 M90.400 56.010 C 88.970 56.184,86.645 56.595,85.233 56.925 C 83.822 57.254,82.427 57.432,82.133 57.319 C 81.840 57.207,81.600 57.308,81.600 57.545 C 81.600 57.781,81.330 57.871,81.000 57.745 C 80.660 57.614,80.400 57.735,80.400 58.024 C 80.400 58.304,80.291 58.424,80.157 58.291 C 78.671 56.804,77.960 61.930,79.227 65.000 C 79.499 65.660,79.789 66.552,79.871 66.983 C 79.953 67.413,80.219 67.888,80.461 68.038 C 80.704 68.188,80.779 68.511,80.628 68.755 C 80.476 69.000,80.554 69.200,80.800 69.200 C 81.046 69.200,81.136 69.380,81.000 69.600 C 80.864 69.820,80.943 70.000,81.176 70.000 C 81.409 70.000,81.600 70.191,81.600 70.424 C 81.600 70.657,81.375 70.720,81.100 70.565 C 80.825 70.409,81.005 70.676,81.500 71.157 C 81.995 71.638,82.400 72.189,82.400 72.382 C 82.400 72.576,82.789 73.604,83.265 74.667 C 83.741 75.730,84.101 76.735,84.065 76.900 C 84.029 77.065,84.191 77.200,84.424 77.200 C 84.657 77.200,84.736 77.380,84.600 77.600 C 84.464 77.820,84.554 78.000,84.800 78.000 C 85.046 78.000,85.144 78.168,85.017 78.372 C 84.891 78.577,84.973 78.860,85.200 79.000 C 85.427 79.140,85.509 79.423,85.383 79.628 C 85.256 79.832,85.312 80.000,85.507 80.000 C 85.701 80.000,86.474 81.530,87.223 83.400 C 87.973 85.270,88.702 86.800,88.844 86.800 C 88.986 86.800,89.513 87.925,90.015 89.300 C 90.517 90.675,91.170 92.085,91.465 92.432 C 91.760 92.780,91.881 93.185,91.734 93.332 C 91.587 93.480,91.638 93.600,91.848 93.600 C 92.058 93.600,92.259 93.989,92.295 94.464 C 92.331 94.939,92.594 95.476,92.880 95.658 C 93.166 95.839,93.220 95.993,93.000 96.000 C 92.751 96.008,92.758 96.123,93.021 96.306 C 93.252 96.468,93.777 97.500,94.187 98.600 C 94.598 99.700,95.207 101.230,95.541 102.000 C 95.875 102.770,96.115 103.535,96.074 103.700 C 96.033 103.865,96.174 104.000,96.387 104.000 C 96.601 104.000,96.671 104.270,96.545 104.600 C 96.418 104.930,96.499 105.200,96.724 105.200 C 97.164 105.200,99.200 110.911,99.200 112.145 C 99.200 112.736,98.997 112.836,98.200 112.636 C 97.623 112.491,97.200 112.557,97.200 112.792 C 97.200 113.017,96.898 113.200,96.528 113.200 C 95.242 113.200,86.998 115.311,86.745 115.705 C 86.604 115.924,86.289 115.979,86.045 115.828 C 85.800 115.676,85.600 115.738,85.600 115.964 C 85.600 116.190,85.330 116.271,85.000 116.145 C 84.670 116.018,84.400 116.126,84.400 116.384 C 84.400 116.672,84.090 116.756,83.600 116.600 C 83.160 116.460,82.800 116.514,82.800 116.719 C 82.800 116.925,81.743 117.478,80.452 117.949 C 79.161 118.420,77.439 119.257,76.625 119.809 C 75.811 120.361,74.950 120.692,74.711 120.545 C 74.472 120.397,74.388 120.457,74.525 120.678 C 74.661 120.899,74.284 121.323,73.686 121.621 C 72.192 122.365,70.400 124.037,70.400 124.687 C 70.400 124.983,70.168 125.314,69.884 125.423 C 69.601 125.532,69.340 126.005,69.304 126.474 C 69.269 126.944,69.043 127.450,68.802 127.599 C 68.265 127.931,66.913 134.362,66.555 138.290 C 66.398 140.011,66.133 141.082,65.900 140.938 C 65.651 140.784,65.612 141.582,65.794 143.148 C 65.994 144.869,65.944 145.600,65.628 145.600 C 65.324 145.600,65.189 146.747,65.216 149.100 C 65.265 153.551,65.252 190.799,65.198 198.137 C 65.167 202.369,65.272 203.603,65.641 203.375 C 66.012 203.145,66.061 203.918,65.849 206.717 C 65.424 212.357,65.305 212.197,69.919 212.216 C 77.077 212.245,87.097 216.798,92.032 222.266 C 93.452 223.839,93.501 223.857,97.632 224.310 C 102.036 224.793,108.873 226.404,110.844 227.423 L 112.018 228.030 111.968 223.730 C 111.919 219.460,111.926 219.423,113.059 218.500 C 115.156 216.792,122.365 217.681,125.900 220.083 L 127.600 221.238 127.600 218.619 C 127.600 216.918,127.761 216.000,128.058 216.000 C 128.394 216.000,128.441 214.553,128.236 210.600 C 128.031 206.649,128.079 205.200,128.414 205.200 C 128.741 205.200,128.864 203.281,128.844 198.500 C 128.828 194.815,128.892 187.750,128.985 182.800 C 129.079 177.850,129.275 164.956,129.420 154.146 L 129.685 134.492 131.743 134.215 C 132.874 134.063,134.880 133.864,136.200 133.773 C 137.520 133.682,139.770 133.516,141.200 133.404 C 142.630 133.292,145.015 133.209,146.500 133.218 C 148.272 133.229,149.200 133.078,149.200 132.777 C 149.200 132.450,149.999 132.399,152.000 132.600 C 153.574 132.758,154.800 132.726,154.800 132.526 C 154.800 132.331,157.095 131.950,159.900 131.680 C 167.185 130.977,172.107 129.441,170.909 128.243 C 170.776 128.109,170.896 128.000,171.176 128.000 C 171.460 128.000,171.586 127.740,171.460 127.413 C 171.336 127.090,171.385 126.733,171.567 126.620 C 171.750 126.507,171.902 126.006,171.904 125.507 C 171.906 125.008,172.119 123.819,172.379 122.865 C 174.327 115.691,174.437 109.200,172.610 109.200 C 172.274 109.200,172.000 109.001,172.000 108.758 C 172.000 108.449,171.039 108.402,168.800 108.600 C 166.625 108.792,165.600 108.747,165.600 108.457 C 165.600 108.002,163.393 107.943,146.200 107.943 C 131.223 107.942,128.733 107.993,128.245 108.310 C 128.000 108.470,126.875 108.600,125.745 108.600 L 123.689 108.600 122.569 105.100 C 121.953 103.175,121.309 101.600,121.137 101.600 C 120.966 101.600,120.929 101.330,121.055 101.000 C 121.182 100.670,121.067 100.400,120.800 100.400 C 120.533 100.400,120.414 100.142,120.535 99.826 C 120.656 99.510,120.612 99.195,120.437 99.126 C 120.263 99.057,119.436 96.930,118.600 94.400 C 117.764 91.870,116.938 89.706,116.765 89.591 C 116.591 89.477,115.781 87.497,114.965 85.191 C 114.149 82.886,113.305 80.885,113.089 80.745 C 112.874 80.604,112.821 80.289,112.972 80.045 C 113.124 79.800,113.084 79.600,112.885 79.600 C 112.685 79.600,111.743 77.485,110.790 74.900 C 109.838 72.315,108.925 70.109,108.762 69.997 C 108.599 69.885,107.998 68.549,107.425 67.028 C 106.853 65.507,106.209 64.052,105.996 63.795 C 105.782 63.537,105.725 63.208,105.870 63.063 C 106.015 62.918,105.878 62.797,105.567 62.794 C 105.100 62.789,105.106 62.719,105.600 62.400 C 106.106 62.073,106.083 62.011,105.457 62.006 C 104.977 62.002,104.792 61.797,104.935 61.426 C 105.056 61.110,105.030 60.795,104.878 60.726 C 104.725 60.657,104.060 59.520,103.400 58.200 L 102.200 55.800 97.600 55.747 C 95.070 55.717,91.830 55.836,90.400 56.010 M198.327 96.200 C 198.077 96.750,197.710 97.200,197.512 97.200 C 197.315 97.200,197.264 97.380,197.400 97.600 C 197.536 97.820,197.481 98.000,197.279 98.000 C 197.076 98.000,196.314 99.215,195.585 100.700 C 194.856 102.185,193.994 103.598,193.669 103.839 C 193.344 104.081,193.206 104.486,193.362 104.739 C 193.519 104.993,193.457 105.200,193.224 105.200 C 192.991 105.200,192.800 105.393,192.800 105.629 C 192.800 105.864,192.575 106.308,192.300 106.615 C 191.187 107.855,190.800 108.380,190.800 108.645 C 190.800 109.041,187.735 111.774,187.116 111.930 C 186.832 112.002,186.540 112.227,186.467 112.430 C 186.278 112.953,185.200 112.891,185.200 112.357 C 185.200 112.114,184.936 112.016,184.613 112.140 C 184.290 112.264,183.933 112.215,183.820 112.033 C 183.162 110.967,181.709 111.735,181.706 113.150 C 181.704 113.947,180.950 116.580,180.030 119.000 C 177.613 125.359,177.416 126.667,178.748 127.512 C 179.326 127.880,179.946 128.414,180.125 128.699 C 180.303 128.984,180.619 129.112,180.828 128.983 C 181.036 128.854,181.458 129.001,181.767 129.309 C 182.075 129.618,183.793 130.354,185.585 130.947 C 190.651 132.621,190.330 132.998,197.137 117.400 C 198.001 115.420,199.988 110.884,201.554 107.320 C 204.433 100.764,204.786 99.285,203.922 97.389 C 202.918 95.185,199.154 94.385,198.327 96.200 M102.941 139.900 C 102.875 140.505,102.447 145.230,101.990 150.400 C 101.533 155.570,100.991 160.108,100.786 160.484 C 100.581 160.860,100.523 161.714,100.657 162.383 C 100.800 163.099,100.700 163.838,100.414 164.183 C 100.115 164.543,100.033 165.239,100.200 166.000 C 100.358 166.717,100.287 167.454,100.031 167.762 C 99.790 168.053,99.594 168.901,99.596 169.646 C 99.598 170.391,99.509 171.720,99.399 172.600 C 99.288 173.480,98.990 175.951,98.737 178.092 C 98.297 181.808,98.251 181.934,97.712 180.895 C 97.366 180.229,97.242 179.301,97.392 178.503 C 97.526 177.787,97.484 177.200,97.298 177.200 C 97.112 177.200,96.730 175.175,96.448 172.700 C 96.165 170.225,95.672 165.860,95.351 163.000 C 94.133 152.155,94.979 141.800,97.082 141.800 C 97.342 141.800,97.935 141.391,98.401 140.891 C 98.867 140.391,99.417 140.087,99.624 140.215 C 99.831 140.343,100.000 140.272,100.000 140.057 C 100.000 139.689,101.692 138.900,102.631 138.832 C 102.868 138.814,103.008 139.294,102.941 139.900 M64.598 213.202 C 64.198 213.644,63.966 214.099,64.082 214.215 C 64.197 214.330,64.590 213.969,64.955 213.412 C 65.752 212.196,65.593 212.102,64.598 213.202 M63.351 220.400 C 63.351 222.930,63.416 223.965,63.496 222.700 C 63.575 221.435,63.575 219.365,63.496 218.100 C 63.416 216.835,63.351 217.870,63.351 220.400 M132.406 231.476 C 132.410 233.640,132.531 234.416,132.800 234.000 C 133.273 233.267,133.231 228.866,132.748 228.568 C 132.556 228.449,132.403 229.758,132.406 231.476 M131.606 238.700 C 131.603 239.195,131.780 239.600,132.000 239.600 C 132.501 239.600,132.501 239.176,132.000 238.400 C 131.686 237.915,131.611 237.972,131.606 238.700 M129.990 249.426 C 129.568 250.537,129.471 251.463,129.812 251.121 C 130.115 250.819,130.781 248.400,130.562 248.400 C 130.462 248.400,130.205 248.862,129.990 249.426 M69.854 252.670 C 70.103 252.851,70.407 253.360,70.528 253.800 C 70.701 254.431,70.732 254.395,70.674 253.631 C 70.633 253.099,70.330 252.590,70.000 252.501 C 69.604 252.394,69.554 252.451,69.854 252.670 M71.474 258.400 C 71.608 259.390,71.872 260.560,72.061 261.000 C 72.277 261.506,72.310 261.138,72.151 260.000 C 72.012 259.010,71.748 257.840,71.564 257.400 C 71.357 256.906,71.323 257.288,71.474 258.400 M128.812 258.580 C 128.803 259.441,128.920 259.640,129.241 259.319 C 129.558 259.002,129.561 258.668,129.254 258.139 C 128.877 257.491,128.823 257.546,128.812 258.580 M72.006 263.100 C 72.024 263.977,72.788 264.559,72.794 263.700 C 72.797 263.205,72.620 262.800,72.400 262.800 C 72.180 262.800,72.003 262.935,72.006 263.100 M129.720 264.800 C 129.720 266.010,129.795 266.505,129.887 265.900 C 129.978 265.295,129.978 264.305,129.887 263.700 C 129.795 263.095,129.720 263.590,129.720 264.800 M172.300 274.693 C 173.235 274.777,174.765 274.777,175.700 274.693 C 176.635 274.609,175.870 274.540,174.000 274.540 C 172.130 274.540,171.365 274.609,172.300 274.693 M165.200 275.200 C 164.715 275.514,164.772 275.589,165.500 275.594 C 165.995 275.597,166.400 275.420,166.400 275.200 C 166.400 274.699,165.976 274.699,165.200 275.200 M178.400 274.933 C 178.400 275.035,179.137 275.503,180.038 275.973 C 180.939 276.442,181.609 276.627,181.528 276.383 C 181.446 276.139,181.225 275.969,181.035 276.004 C 180.845 276.039,180.579 275.897,180.445 275.688 C 180.182 275.280,178.400 274.622,178.400 274.933 M160.800 276.000 C 160.800 276.220,161.205 276.397,161.700 276.394 C 162.428 276.389,162.485 276.314,162.000 276.000 C 161.224 275.499,160.800 275.499,160.800 276.000 M73.076 277.347 C 72.903 277.978,72.860 278.593,72.981 278.714 C 73.398 279.131,73.660 278.469,73.525 277.337 L 73.390 276.200 73.076 277.347 M153.400 277.789 C 151.252 278.497,152.097 278.524,154.600 277.828 C 155.700 277.522,156.240 277.269,155.800 277.267 C 155.360 277.264,154.280 277.499,153.400 277.789 M182.400 280.800 C 182.400 281.900,182.536 282.800,182.703 282.800 C 182.870 282.800,183.005 281.901,183.003 280.801 C 183.001 279.702,182.865 278.802,182.700 278.801 C 182.535 278.801,182.400 279.700,182.400 280.800 M74.101 286.200 C 74.105 287.080,74.187 287.393,74.283 286.895 C 74.379 286.398,74.375 285.678,74.275 285.295 C 74.175 284.913,74.096 285.320,74.101 286.200 M176.463 294.800 C 175.975 295.460,175.723 296.000,175.902 296.000 C 176.081 296.000,176.546 295.460,176.936 294.800 C 177.326 294.140,177.579 293.600,177.498 293.600 C 177.417 293.600,176.951 294.140,176.463 294.800 M74.914 295.800 C 74.917 296.900,74.995 297.303,75.087 296.695 C 75.179 296.086,75.177 295.186,75.082 294.695 C 74.987 294.203,74.911 294.700,74.914 295.800 M156.778 297.500 L 155.400 299.000 156.900 297.622 C 158.296 296.338,158.584 296.000,158.278 296.000 C 158.212 296.000,157.537 296.675,156.778 297.500 M151.100 303.076 C 150.715 303.176,150.400 303.502,150.400 303.800 C 150.400 304.098,149.820 304.796,149.112 305.350 C 148.404 305.904,147.909 306.439,148.012 306.537 C 148.115 306.636,149.100 305.837,150.200 304.762 C 151.300 303.687,152.110 302.826,152.000 302.850 C 151.890 302.873,151.485 302.975,151.100 303.076 M140.881 304.972 C 139.023 306.285,138.762 306.661,140.331 305.762 C 141.063 305.343,141.850 304.775,142.080 304.500 C 142.671 303.793,142.393 303.902,140.881 304.972 M100.524 307.000 C 100.526 308.320,100.601 308.812,100.690 308.093 C 100.779 307.374,100.777 306.294,100.686 305.693 C 100.595 305.092,100.522 305.680,100.524 307.000 M167.933 305.572 C 167.860 305.777,166.822 306.992,165.627 308.272 C 161.632 312.553,160.556 313.814,161.600 312.992 C 162.150 312.559,163.140 311.583,163.800 310.824 C 164.460 310.064,165.765 308.632,166.700 307.642 C 167.635 306.652,168.400 305.697,168.400 305.521 C 168.400 305.082,168.097 305.116,167.933 305.572 M137.076 307.374 C 136.647 307.699,136.517 308.025,136.756 308.173 C 136.978 308.310,137.355 308.057,137.594 307.611 C 138.101 306.663,138.047 306.638,137.076 307.374 M146.431 307.892 C 145.934 308.982,145.935 308.983,146.767 308.230 C 147.626 307.452,147.853 306.800,147.264 306.800 C 147.080 306.800,146.704 307.292,146.431 307.892 M127.497 312.766 C 125.685 313.928,125.686 314.156,127.500 313.241 C 128.435 312.770,129.200 312.297,129.200 312.192 C 129.200 311.849,128.623 312.044,127.497 312.766 M90.600 312.748 C 87.000 313.212,83.554 315.306,77.230 320.872 C 75.563 322.339,74.937 322.680,74.530 322.342 C 74.118 322.000,74.000 322.091,74.000 322.751 C 74.000 324.096,74.633 323.788,78.124 320.744 C 85.720 314.120,88.562 312.945,96.073 313.323 C 98.673 313.454,100.800 313.428,100.800 313.266 C 100.800 313.104,99.765 312.936,98.500 312.892 C 97.235 312.849,95.390 312.740,94.400 312.652 C 93.410 312.563,91.700 312.606,90.600 312.748 M74.901 316.200 C 74.905 317.080,74.987 317.393,75.083 316.895 C 75.179 316.398,75.175 315.678,75.075 315.295 C 74.975 314.913,74.896 315.320,74.901 316.200 M120.600 316.000 C 120.464 316.220,120.623 316.400,120.953 316.400 C 121.283 316.400,121.664 316.220,121.800 316.000 C 121.936 315.780,121.777 315.600,121.447 315.600 C 121.117 315.600,120.736 315.780,120.600 316.000 M139.677 317.003 C 140.157 317.555,141.011 318.303,141.575 318.667 C 142.153 319.040,141.859 318.603,140.900 317.664 C 139.015 315.820,138.323 315.446,139.677 317.003 M93.392 318.579 C 88.256 319.716,86.995 320.661,81.097 327.800 C 78.916 330.440,76.073 333.697,74.780 335.037 C 72.014 337.904,71.771 338.444,71.471 342.400 C 71.280 344.926,71.300 345.084,71.600 343.400 C 71.795 342.300,72.065 340.806,72.200 340.079 C 72.366 339.183,73.420 337.703,75.479 335.479 C 77.148 333.676,79.761 330.625,81.287 328.700 C 82.813 326.775,84.228 325.200,84.431 325.200 C 84.634 325.200,84.800 324.933,84.800 324.606 C 84.800 323.888,89.140 320.401,90.033 320.400 C 90.382 320.400,90.795 320.271,90.953 320.114 C 91.547 319.520,95.100 318.835,97.678 318.818 L 100.356 318.800 100.518 320.700 C 100.669 322.470,100.677 322.450,100.640 320.400 L 100.600 318.200 98.200 318.123 C 96.880 318.081,94.717 318.286,93.392 318.579 M142.800 319.397 C 142.800 319.759,147.608 321.920,149.000 322.184 C 150.111 322.395,150.096 322.371,148.800 321.862 C 147.343 321.289,143.622 319.635,143.100 319.329 C 142.935 319.232,142.800 319.263,142.800 319.397 M153.775 320.900 L 152.600 322.200 153.900 321.025 C 155.112 319.930,155.384 319.600,155.075 319.600 C 155.006 319.600,154.421 320.185,153.775 320.900 M104.448 328.756 C 103.265 329.142,101.889 329.851,101.392 330.329 C 100.894 330.808,100.304 331.200,100.079 331.200 C 99.855 331.200,99.202 331.785,98.630 332.500 C 98.057 333.215,97.411 334.017,97.194 334.283 C 96.637 334.966,96.704 337.101,97.288 337.296 C 97.956 337.519,97.882 341.979,97.203 342.398 C 96.925 342.570,96.821 342.911,96.972 343.155 C 97.124 343.400,97.037 343.600,96.781 343.600 C 96.514 343.600,96.421 343.879,96.564 344.251 C 96.701 344.609,96.602 345.156,96.344 345.468 C 96.007 345.873,95.997 346.157,96.306 346.466 C 96.543 346.703,96.642 347.146,96.526 347.449 C 96.410 347.752,96.533 348.000,96.800 348.000 C 97.067 348.000,97.191 348.247,97.075 348.549 C 96.954 348.865,97.276 349.319,97.832 349.617 C 98.364 349.902,98.800 350.241,98.800 350.370 C 98.800 350.500,99.604 350.542,100.587 350.464 C 102.733 350.293,104.597 351.037,105.169 352.293 C 105.400 352.798,106.041 353.418,106.594 353.670 C 107.147 353.922,107.600 354.280,107.600 354.464 C 107.600 354.649,108.140 354.800,108.800 354.800 C 109.460 354.800,110.000 354.653,110.000 354.474 C 110.000 353.425,112.870 352.773,114.439 353.465 C 115.297 353.844,116.000 354.278,116.000 354.430 C 116.000 354.581,116.763 354.681,117.696 354.653 C 119.307 354.603,120.859 353.747,120.513 353.100 C 120.425 352.935,120.538 352.800,120.764 352.800 C 120.990 352.800,121.071 352.530,120.945 352.200 C 120.816 351.866,120.934 351.600,121.210 351.600 C 121.948 351.600,121.396 348.841,120.518 348.146 C 120.123 347.833,118.839 346.944,117.664 346.171 C 116.010 345.081,115.595 344.610,115.825 344.082 C 116.626 342.243,116.267 341.429,114.400 340.850 C 110.145 339.529,109.932 339.123,112.254 336.745 C 114.772 334.166,112.821 333.029,109.034 334.868 C 105.998 336.343,105.321 335.179,107.037 331.432 C 108.625 327.964,108.204 327.529,104.448 328.756 M260.600 339.637 C 253.632 340.007,247.112 340.701,245.751 341.219 C 245.073 341.476,244.791 341.439,244.768 341.090 C 244.751 340.821,244.556 341.095,244.335 341.700 C 244.114 342.305,243.763 342.800,243.554 342.800 C 243.346 342.800,243.184 343.385,243.196 344.100 C 243.261 348.226,242.783 349.792,241.172 350.719 C 240.139 351.314,239.704 351.805,239.857 352.204 C 239.983 352.532,239.902 352.800,239.678 352.800 C 239.214 352.800,239.239 357.773,239.705 358.239 C 239.867 358.401,240.000 358.846,240.000 359.227 C 240.000 359.620,240.630 360.248,241.451 360.675 L 242.903 361.428 242.827 365.811 C 242.767 369.304,242.626 370.266,242.131 370.543 C 241.540 370.873,240.801 371.606,239.704 372.950 C 239.432 373.284,239.309 373.818,239.432 374.138 C 239.554 374.458,239.462 374.838,239.227 374.983 C 238.684 375.319,238.668 377.471,239.207 377.804 C 239.430 377.942,239.507 378.227,239.377 378.438 C 239.168 378.776,240.671 380.423,242.551 381.916 C 242.947 382.230,243.200 383.028,243.200 383.960 C 243.200 384.801,243.319 386.354,243.464 387.411 C 243.699 389.130,243.653 389.306,243.032 389.067 C 242.282 388.780,239.254 391.318,239.040 392.414 C 238.977 392.736,238.787 393.496,238.619 394.103 C 237.937 396.554,240.107 400.800,242.041 400.800 C 242.459 400.800,242.800 400.978,242.800 401.195 C 242.800 401.413,243.205 401.548,243.700 401.495 C 244.382 401.423,244.583 401.592,244.529 402.194 C 244.490 402.631,244.589 403.081,244.750 403.194 C 244.911 403.307,245.417 404.750,245.873 406.400 C 246.896 410.097,248.205 413.661,248.451 413.416 C 248.552 413.315,249.073 414.035,249.609 415.016 C 250.145 415.997,250.722 416.800,250.892 416.800 C 251.061 416.800,251.200 416.993,251.200 417.229 C 251.200 417.464,251.472 417.929,251.804 418.261 C 252.136 418.593,252.287 419.075,252.140 419.332 C 251.992 419.590,252.004 419.681,252.166 419.536 C 252.328 419.392,253.738 420.652,255.300 422.336 C 257.921 425.164,261.162 427.680,262.888 428.228 C 263.280 428.352,263.600 428.652,263.600 428.894 C 263.600 429.135,263.711 429.222,263.848 429.086 C 263.984 428.950,264.341 429.084,264.641 429.384 C 265.242 429.985,270.989 432.000,272.101 432.000 C 272.486 432.000,272.800 432.149,272.800 432.331 C 272.800 432.513,273.340 432.582,274.000 432.485 C 274.660 432.388,275.200 432.465,275.200 432.655 C 275.200 432.845,277.990 433.000,281.400 433.000 C 284.810 433.000,287.600 432.843,287.600 432.650 C 287.600 432.457,288.140 432.408,288.800 432.540 C 289.477 432.675,290.000 432.610,290.000 432.390 C 290.000 432.176,290.351 432.000,290.779 432.000 C 291.956 432.000,298.400 429.580,298.400 429.139 C 298.400 428.926,298.580 428.864,298.800 429.000 C 299.020 429.136,299.200 429.037,299.200 428.781 C 299.200 428.524,299.470 428.418,299.800 428.545 C 300.130 428.671,300.400 428.603,300.400 428.392 C 300.400 428.058,303.009 426.161,304.239 425.600 C 305.173 425.174,311.600 417.836,311.600 417.195 C 311.600 416.978,311.758 416.800,311.951 416.800 C 312.144 416.800,312.819 415.810,313.451 414.601 C 314.083 413.391,314.746 412.401,314.924 412.401 C 315.102 412.400,315.152 412.247,315.036 412.059 C 314.492 411.179,315.884 410.395,318.302 410.220 C 320.819 410.038,322.750 408.781,322.787 407.300 C 322.794 407.025,322.944 406.800,323.119 406.800 C 323.665 406.800,323.443 401.774,322.866 401.079 C 322.572 400.725,322.435 400.267,322.562 400.061 C 322.780 399.709,320.522 398.400,319.697 398.400 C 319.062 398.400,318.717 392.922,319.293 391.999 C 319.568 391.560,319.982 391.200,320.213 391.200 C 320.797 391.200,323.586 388.519,323.299 388.233 C 323.171 388.105,323.257 388.000,323.489 388.000 C 323.721 388.000,323.894 387.775,323.873 387.500 C 323.852 387.225,323.979 386.342,324.155 385.539 C 324.379 384.515,324.297 383.677,323.880 382.739 C 323.553 382.002,323.182 381.085,323.055 380.700 C 322.929 380.315,322.481 380.000,322.062 380.000 C 320.548 380.000,320.303 379.089,320.610 374.594 C 320.768 372.268,320.985 370.452,321.092 370.558 C 321.303 370.769,321.893 370.350,323.596 368.779 C 325.455 367.065,325.567 360.400,323.737 360.400 C 323.442 360.400,323.200 360.150,323.200 359.843 C 323.200 359.537,322.774 359.180,322.253 359.049 C 321.347 358.822,321.303 358.647,321.246 355.106 C 321.109 346.626,320.409 342.814,318.817 341.873 C 315.157 339.711,282.701 338.465,260.600 339.637 M89.843 343.833 C 89.494 344.741,89.544 345.282,89.952 345.030 C 90.426 344.737,90.807 343.200,90.405 343.200 C 90.229 343.200,89.976 343.485,89.843 343.833 M70.493 350.800 C 70.493 351.570,70.575 351.885,70.676 351.500 C 70.776 351.115,70.776 350.485,70.676 350.100 C 70.575 349.715,70.493 350.030,70.493 350.800 M87.000 356.000 C 86.846 356.910,86.811 357.744,86.921 357.854 C 87.031 357.964,87.246 357.310,87.400 356.400 C 87.554 355.490,87.589 354.656,87.479 354.546 C 87.369 354.436,87.154 355.090,87.000 356.000 M69.247 358.900 C 69.374 361.314,69.905 362.217,69.953 360.100 C 69.979 358.935,69.822 358.000,69.600 358.000 C 69.380 358.000,69.221 358.405,69.247 358.900 M68.840 367.476 C 68.920 369.748,69.516 370.780,69.560 368.724 C 69.582 367.692,69.420 366.736,69.200 366.600 C 68.967 366.456,68.817 366.821,68.840 367.476 M86.920 368.800 C 86.920 370.010,86.995 370.505,87.087 369.900 C 87.178 369.295,87.178 368.305,87.087 367.700 C 86.995 367.095,86.920 367.590,86.920 368.800 M87.337 374.200 C 87.339 375.960,87.409 376.630,87.493 375.689 C 87.578 374.749,87.577 373.309,87.491 372.489 C 87.405 371.670,87.336 372.440,87.337 374.200 M69.504 375.000 C 69.072 377.340,69.112 378.248,69.624 377.736 C 69.858 377.502,69.993 376.431,69.924 375.356 L 69.800 373.400 69.504 375.000 M69.628 383.876 C 69.718 384.915,70.344 385.796,70.372 384.924 C 70.387 384.442,70.220 383.936,70.000 383.800 C 69.780 383.664,69.613 383.698,69.628 383.876 M70.520 390.000 C 70.520 391.210,70.595 391.705,70.687 391.100 C 70.778 390.495,70.778 389.505,70.687 388.900 C 70.595 388.295,70.520 388.790,70.520 390.000 M88.140 391.600 C 88.140 393.470,88.209 394.235,88.293 393.300 C 88.377 392.365,88.377 390.835,88.293 389.900 C 88.209 388.965,88.140 389.730,88.140 391.600 M71.331 402.200 C 71.333 403.740,71.405 404.321,71.492 403.491 C 71.579 402.661,71.577 401.401,71.489 400.691 C 71.400 399.981,71.329 400.660,71.331 402.200 M71.701 406.600 C 71.705 407.480,71.787 407.793,71.883 407.295 C 71.979 406.798,71.975 406.078,71.875 405.695 C 71.775 405.313,71.696 405.720,71.701 406.600 M89.100 406.629 C 88.935 406.796,88.822 408.208,88.849 409.767 L 88.898 412.600 89.255 410.200 C 89.642 407.605,89.578 406.143,89.100 406.629 M72.232 414.103 C 72.056 414.490,72.058 415.480,72.235 416.303 C 72.536 417.698,72.568 417.725,72.706 416.700 C 72.941 414.947,72.628 413.233,72.232 414.103 M89.043 417.833 C 88.667 418.811,88.749 418.908,89.400 418.257 C 90.080 417.577,90.167 417.200,89.643 417.200 C 89.446 417.200,89.176 417.485,89.043 417.833 M86.075 419.873 C 85.126 420.209,84.421 420.554,84.507 420.641 C 84.690 420.823,88.400 419.605,88.400 419.362 C 88.400 419.112,87.945 419.212,86.075 419.873 M73.100 420.737 C 73.485 421.142,73.923 421.409,74.072 421.330 C 74.222 421.251,74.458 421.370,74.596 421.593 C 74.916 422.112,76.400 422.127,76.400 421.613 C 76.400 421.399,76.136 421.326,75.814 421.450 C 75.492 421.574,74.699 421.298,74.052 420.837 C 72.600 419.803,72.170 419.758,73.100 420.737 M80.600 421.200 C 79.530 421.472,79.508 421.505,80.400 421.505 C 80.950 421.505,81.940 421.368,82.600 421.200 C 83.670 420.928,83.692 420.895,82.800 420.895 C 82.250 420.895,81.260 421.032,80.600 421.200 " stroke="none" fill="#3b465a" fill-rule="evenodd"></path><path id="path1" d="M282.445 4.946 C 282.119 5.339,282.021 10.419,282.096 23.046 L 282.200 40.600 283.800 40.600 C 285.931 40.600,285.875 41.160,285.678 21.600 C 285.536 7.417,285.436 5.338,284.881 4.900 C 284.050 4.245,283.010 4.265,282.445 4.946 M329.876 13.381 C 329.533 13.724,329.136 14.409,328.994 14.902 C 328.852 15.396,328.390 16.563,327.968 17.496 C 327.545 18.428,327.200 19.397,327.200 19.648 C 327.200 19.900,326.863 20.667,326.451 21.353 C 326.040 22.039,325.031 24.355,324.210 26.500 C 323.389 28.645,322.556 30.400,322.359 30.400 C 322.161 30.400,322.000 30.615,322.000 30.878 C 322.000 31.573,318.761 39.764,318.392 40.000 C 317.911 40.309,316.712 44.250,316.864 45.025 C 317.373 47.610,320.053 46.675,321.224 43.505 C 321.733 42.127,322.282 40.908,322.444 40.796 C 322.606 40.683,323.004 39.873,323.328 38.996 C 325.276 33.724,326.050 31.812,326.312 31.619 C 326.673 31.352,328.263 27.418,328.626 25.896 C 328.770 25.289,329.049 24.694,329.244 24.573 C 329.440 24.452,329.600 24.003,329.600 23.576 C 329.600 23.149,329.749 22.800,329.931 22.800 C 330.487 22.800,333.258 15.235,333.125 14.080 C 332.974 12.775,330.924 12.333,329.876 13.381 M233.449 15.651 C 232.879 16.317,232.811 16.688,233.136 17.351 C 233.365 17.818,234.208 19.729,235.010 21.598 C 235.813 23.466,236.617 25.087,236.799 25.199 C 236.981 25.312,237.881 27.112,238.800 29.200 C 239.719 31.288,240.619 33.088,240.800 33.200 C 240.981 33.312,241.869 35.084,242.773 37.139 C 243.677 39.193,244.683 41.140,245.008 41.465 C 245.334 41.791,245.600 42.335,245.600 42.674 C 245.600 43.013,245.944 43.946,246.365 44.746 C 246.785 45.545,247.231 46.518,247.355 46.906 C 247.937 48.734,251.200 48.497,251.200 46.627 C 251.200 45.600,249.042 40.014,248.499 39.634 C 248.314 39.505,247.468 37.825,246.619 35.900 C 245.769 33.975,244.934 32.400,244.764 32.400 C 244.593 32.400,244.328 31.995,244.174 31.500 C 243.630 29.753,241.193 24.736,240.601 24.143 C 240.270 23.813,240.000 23.296,240.000 22.994 C 240.000 22.119,237.285 16.400,236.869 16.400 C 236.663 16.400,236.399 16.040,236.284 15.600 C 236.003 14.525,234.388 14.554,233.449 15.651 M106.800 22.800 C 106.800 23.020,107.070 23.200,107.400 23.200 C 107.730 23.200,108.000 23.020,108.000 22.800 C 108.000 22.580,107.730 22.400,107.400 22.400 C 107.070 22.400,106.800 22.580,106.800 22.800 M109.200 22.590 C 109.200 22.694,109.727 23.052,110.372 23.385 C 111.016 23.719,111.662 24.367,111.808 24.826 C 111.954 25.285,112.161 25.572,112.269 25.464 C 112.519 25.214,111.793 23.850,110.974 23.031 C 110.391 22.448,109.200 22.152,109.200 22.590 M84.413 31.491 C 83.889 32.082,83.903 32.123,84.546 31.876 C 84.942 31.724,85.431 31.600,85.633 31.600 C 85.835 31.600,86.000 31.420,86.000 31.200 C 86.000 30.583,85.067 30.755,84.413 31.491 M106.407 31.496 C 105.777 31.743,104.598 32.800,104.953 32.800 C 105.485 32.800,107.200 31.835,107.200 31.536 C 107.200 31.351,107.155 31.214,107.100 31.232 C 107.045 31.249,106.733 31.368,106.407 31.496 M100.800 34.448 C 99.081 35.485,99.013 35.546,99.286 35.819 C 99.406 35.940,99.757 35.786,100.066 35.477 C 100.374 35.169,101.160 34.628,101.813 34.274 C 102.466 33.921,102.820 33.625,102.600 33.618 C 102.380 33.610,101.570 33.983,100.800 34.448 M74.501 38.200 C 74.505 39.080,74.587 39.393,74.683 38.895 C 74.779 38.398,74.775 37.678,74.675 37.295 C 74.575 36.913,74.496 37.320,74.501 38.200 M94.400 39.367 C 94.400 39.678,94.175 40.014,93.900 40.112 C 93.625 40.210,93.537 40.437,93.704 40.616 C 93.871 40.795,94.271 40.595,94.591 40.171 C 95.281 39.259,95.351 38.800,94.800 38.800 C 94.580 38.800,94.400 39.055,94.400 39.367 M282.286 43.848 C 281.073 45.060,282.268 49.200,283.831 49.200 C 286.249 49.200,286.398 43.884,283.986 43.681 C 283.208 43.615,282.443 43.690,282.286 43.848 M85.000 47.200 C 81.700 48.283,79.384 49.176,79.853 49.185 C 80.756 49.201,81.185 50.132,81.195 52.100 C 81.198 52.705,81.367 53.200,81.571 53.200 C 81.775 53.200,82.067 54.201,82.220 55.424 C 82.403 56.890,82.660 57.586,82.972 57.466 C 84.765 56.778,90.932 55.890,95.723 55.629 C 98.845 55.459,100.320 55.291,99.000 55.256 L 96.600 55.193 95.459 51.697 C 92.928 43.944,93.790 44.315,85.000 47.200 M314.694 49.199 C 312.864 51.336,313.607 54.000,316.032 54.000 C 316.696 54.000,317.997 51.448,317.999 50.143 C 318.001 48.290,315.969 47.710,314.694 49.199 M250.814 50.374 C 250.275 51.381,250.291 52.243,250.880 53.870 C 251.710 56.166,254.800 56.247,254.800 53.973 C 254.800 50.850,251.941 48.269,250.814 50.374 M102.959 57.345 C 103.422 58.304,103.873 59.026,103.963 58.949 C 104.199 58.744,102.730 55.600,102.398 55.600 C 102.244 55.600,102.497 56.385,102.959 57.345 M277.200 60.826 C 270.407 61.555,266.400 62.146,266.400 62.419 C 266.400 62.579,265.545 62.829,264.500 62.976 C 263.455 63.123,262.060 63.393,261.400 63.576 C 260.740 63.758,259.120 64.128,257.800 64.397 C 255.391 64.887,253.689 65.383,252.200 66.027 C 251.760 66.217,249.242 67.092,246.605 67.972 C 243.967 68.852,241.747 69.759,241.671 69.986 C 241.595 70.214,241.321 70.400,241.063 70.400 C 240.424 70.400,234.935 72.807,233.200 73.847 C 232.430 74.309,230.495 75.380,228.900 76.228 C 227.305 77.075,226.000 77.910,226.000 78.084 C 226.000 78.258,225.829 78.400,225.620 78.400 C 225.411 78.400,224.440 78.940,223.462 79.600 C 222.484 80.260,221.506 80.800,221.288 80.800 C 221.070 80.800,220.615 81.223,220.276 81.740 C 219.937 82.257,219.044 82.972,218.292 83.329 C 217.540 83.686,216.221 84.703,215.362 85.589 C 214.503 86.475,213.584 87.199,213.320 87.200 C 213.056 87.200,212.163 88.010,211.335 89.000 C 210.508 89.990,209.629 90.800,209.382 90.800 C 209.135 90.800,207.764 92.035,206.336 93.545 C 203.981 96.033,203.668 96.239,202.992 95.745 C 202.582 95.445,202.056 95.206,201.824 95.214 C 201.591 95.222,201.830 95.467,202.356 95.758 C 205.159 97.312,205.011 99.450,201.554 107.320 C 199.988 110.884,198.001 115.420,197.137 117.400 C 190.393 132.853,190.586 132.618,185.934 131.058 C 184.342 130.524,182.836 130.165,182.587 130.260 C 182.142 130.431,179.931 136.575,179.407 139.100 C 179.258 139.815,179.005 140.400,178.844 140.400 C 178.683 140.400,178.342 141.255,178.086 142.300 C 176.883 147.210,176.007 151.255,175.553 154.000 C 175.279 155.650,174.925 157.090,174.766 157.200 C 172.684 158.638,172.647 203.701,174.726 205.183 C 174.894 205.302,175.350 207.380,175.741 209.800 C 176.597 215.106,178.436 222.950,178.865 223.129 C 179.035 223.200,179.286 223.920,179.423 224.729 C 179.560 225.538,179.913 226.920,180.209 227.800 C 180.504 228.680,181.062 230.480,181.448 231.800 C 181.834 233.120,182.251 234.290,182.375 234.400 C 182.729 234.715,184.000 237.579,184.000 238.062 C 184.000 238.857,186.144 244.000,186.475 244.000 C 186.654 244.000,186.800 244.270,186.800 244.599 C 186.800 245.111,187.662 247.170,189.732 251.600 C 189.988 252.150,190.293 252.690,190.408 252.800 C 190.523 252.910,191.192 254.254,191.895 255.788 C 192.597 257.321,193.449 258.898,193.786 259.292 C 194.124 259.687,194.401 260.142,194.402 260.305 C 194.405 260.841,197.239 266.192,197.736 266.600 C 198.004 266.820,199.016 268.575,199.985 270.500 C 200.954 272.425,201.874 274.000,202.028 274.000 C 202.183 274.000,203.082 275.350,204.026 277.000 C 204.970 278.650,205.891 280.000,206.071 280.000 C 206.252 280.000,206.400 280.193,206.400 280.428 C 206.400 280.663,206.940 281.641,207.600 282.600 C 208.260 283.559,208.800 284.528,208.800 284.752 C 208.800 284.977,209.051 285.304,209.358 285.480 C 209.665 285.656,210.581 286.937,211.392 288.326 C 212.204 289.715,213.123 290.949,213.434 291.068 C 213.745 291.188,214.000 291.470,214.000 291.695 C 214.000 291.920,214.630 292.981,215.400 294.053 C 216.170 295.125,216.800 296.146,216.800 296.323 C 216.800 296.499,217.430 297.331,218.200 298.172 C 218.970 299.013,219.600 299.918,219.600 300.184 C 219.600 300.449,220.135 301.192,220.789 301.833 C 221.443 302.475,221.983 303.135,221.989 303.299 C 221.995 303.464,222.630 304.475,223.400 305.547 C 224.170 306.619,224.800 307.656,224.800 307.852 C 224.800 308.047,225.135 308.417,225.544 308.672 C 225.953 308.928,226.879 310.186,227.602 311.468 C 228.325 312.751,229.250 314.035,229.658 314.323 C 230.066 314.610,230.400 315.037,230.400 315.270 C 230.400 315.504,231.395 317.115,232.611 318.850 C 233.827 320.586,234.990 322.447,235.195 322.987 C 235.400 323.527,235.925 324.325,236.362 324.762 C 236.798 325.198,237.927 327.051,238.870 328.878 C 239.813 330.705,240.702 332.290,240.846 332.400 C 241.189 332.663,243.600 337.999,243.600 338.495 C 243.600 340.029,244.898 341.525,245.931 341.180 C 247.661 340.601,253.340 340.016,260.200 339.710 C 263.720 339.552,266.216 339.364,265.746 339.290 C 264.776 339.138,264.400 337.868,264.400 334.750 C 264.400 333.678,264.220 332.800,264.000 332.800 C 263.780 332.800,263.600 332.046,263.600 331.123 C 263.600 329.204,263.151 324.225,261.748 310.600 C 260.355 297.069,260.321 296.800,260.001 296.800 C 259.842 296.800,259.505 294.955,259.250 292.700 C 258.732 288.107,257.773 281.589,257.187 278.669 C 256.974 277.608,256.800 276.303,256.800 275.769 C 256.800 275.236,256.626 274.800,256.414 274.800 C 256.201 274.800,255.910 273.914,255.766 272.831 L 255.505 270.862 253.653 270.645 C 252.634 270.525,250.630 270.319,249.200 270.188 C 245.763 269.871,241.994 269.253,241.000 268.843 C 240.560 268.661,238.518 267.993,236.463 267.356 C 234.407 266.720,232.326 265.840,231.839 265.400 C 231.351 264.960,230.117 263.920,229.096 263.089 C 228.075 262.258,226.837 260.863,226.346 259.989 C 225.855 259.115,225.309 258.400,225.133 258.400 C 224.715 258.400,223.122 255.180,222.164 252.400 C 221.747 251.190,221.290 250.110,221.147 250.000 C 219.927 249.060,219.964 238.479,221.188 238.071 C 221.415 237.995,221.600 237.613,221.600 237.222 C 221.600 236.832,222.014 235.902,222.519 235.156 C 223.025 234.410,223.561 233.481,223.710 233.091 C 223.860 232.701,224.301 232.260,224.691 232.110 C 225.387 231.844,227.796 230.345,228.618 229.666 C 229.958 228.561,240.482 228.468,241.180 229.555 C 241.301 229.743,242.355 230.394,243.521 231.002 C 244.688 231.609,245.948 232.554,246.321 233.102 C 246.695 233.649,247.434 234.563,247.965 235.131 C 249.001 236.243,251.319 240.375,251.807 241.981 C 251.971 242.521,252.335 243.192,252.615 243.472 C 253.167 244.024,256.000 252.599,256.000 253.717 C 256.000 254.093,256.169 254.400,256.375 254.400 C 256.581 254.400,257.343 256.945,258.069 260.056 L 259.389 265.711 263.975 265.449 C 266.497 265.305,268.659 265.036,268.780 264.851 C 268.901 264.667,269.720 264.393,270.600 264.244 C 273.919 263.681,274.400 263.522,274.400 262.986 C 274.400 262.354,273.024 260.235,271.673 258.788 C 270.525 257.558,269.289 254.824,268.694 252.200 C 268.445 251.100,268.051 250.072,267.820 249.914 C 267.217 249.505,267.323 240.692,267.934 240.489 C 268.190 240.403,268.400 239.985,268.400 239.559 C 268.400 234.839,275.889 226.400,280.079 226.400 C 280.475 226.400,280.800 226.220,280.800 226.000 C 280.800 225.769,282.067 225.600,283.800 225.600 C 285.533 225.600,286.800 225.769,286.800 226.000 C 286.800 226.220,287.115 226.402,287.500 226.404 C 290.245 226.418,295.061 230.698,296.723 234.600 C 299.145 240.288,297.986 251.785,294.624 255.412 C 294.061 256.019,293.601 256.716,293.603 256.958 C 293.605 257.201,292.320 258.601,290.748 260.068 C 287.350 263.240,287.339 263.810,290.667 264.226 C 293.529 264.583,306.771 264.189,307.226 263.733 C 307.409 263.550,307.729 258.360,307.939 252.200 C 308.353 240.038,308.890 237.054,311.062 234.845 C 311.578 234.320,312.000 233.664,312.000 233.387 C 312.000 233.110,312.675 232.330,313.500 231.654 C 314.325 230.978,315.378 230.060,315.840 229.615 C 318.222 227.318,324.624 226.678,327.998 228.399 C 329.694 229.264,333.600 233.023,333.600 233.790 C 333.600 234.078,333.851 234.411,334.157 234.528 C 334.792 234.772,337.117 239.485,337.468 241.239 C 337.595 241.877,337.858 242.400,338.050 242.400 C 338.243 242.400,338.400 244.110,338.400 246.200 C 338.400 248.290,338.248 250.000,338.063 250.000 C 337.878 250.000,337.237 251.248,336.639 252.773 C 335.607 255.403,332.686 258.936,330.562 260.125 C 330.203 260.326,329.556 260.844,329.125 261.275 C 328.693 261.707,327.142 262.598,325.678 263.255 C 324.215 263.911,322.923 264.591,322.809 264.765 C 322.624 265.045,321.375 265.478,317.000 266.779 C 316.340 266.975,315.036 267.256,314.102 267.403 C 311.908 267.748,312.105 267.045,311.563 276.434 C 311.304 280.925,310.963 284.690,310.806 284.800 C 310.650 284.910,310.402 286.980,310.256 289.400 C 310.111 291.820,309.809 296.140,309.586 299.000 C 309.364 301.860,309.019 306.450,308.820 309.200 C 307.588 326.289,307.016 333.024,306.783 333.200 C 306.638 333.310,306.399 334.885,306.250 336.700 L 305.981 340.000 307.691 340.007 C 310.644 340.020,317.700 341.174,318.656 341.800 C 319.787 342.541,320.000 342.549,320.000 341.851 C 320.000 340.913,321.513 337.825,322.581 336.583 C 323.141 335.932,323.599 335.246,323.600 335.058 C 323.600 334.767,325.743 331.808,326.393 331.200 C 326.511 331.090,327.086 330.261,327.671 329.358 C 328.256 328.455,329.379 327.015,330.166 326.158 C 330.954 325.301,331.874 324.021,332.211 323.314 C 332.548 322.607,333.145 321.797,333.537 321.514 C 333.928 321.231,335.009 319.965,335.937 318.700 C 336.866 317.435,337.771 316.400,337.948 316.400 C 338.126 316.400,338.457 315.995,338.683 315.500 C 338.909 315.005,339.749 313.880,340.548 313.000 C 341.348 312.120,342.680 310.491,343.510 309.381 C 344.339 308.271,345.434 306.921,345.943 306.381 C 346.452 305.841,347.311 304.650,347.852 303.734 C 348.393 302.818,349.278 301.779,349.818 301.425 C 350.358 301.071,350.800 300.505,350.800 300.167 C 350.800 299.830,351.424 298.889,352.187 298.077 C 353.464 296.718,356.400 292.573,356.400 292.129 C 356.400 292.024,356.947 291.392,357.615 290.723 C 358.284 290.055,359.178 288.827,359.602 287.996 C 360.027 287.164,360.616 286.240,360.912 285.942 C 361.208 285.644,362.245 284.050,363.216 282.400 C 364.187 280.750,365.190 279.220,365.446 279.000 C 365.701 278.780,366.394 277.700,366.986 276.600 C 367.577 275.500,368.280 274.420,368.548 274.200 C 368.815 273.980,369.821 272.225,370.783 270.300 C 371.744 268.375,372.653 266.800,372.802 266.800 C 372.950 266.800,373.850 265.000,374.800 262.800 C 375.750 260.600,376.658 258.800,376.818 258.800 C 376.977 258.800,377.516 257.765,378.016 256.500 C 378.516 255.235,379.077 254.029,379.262 253.820 C 379.448 253.611,379.600 253.129,379.600 252.749 C 379.600 252.368,379.831 251.819,380.113 251.529 C 380.676 250.948,382.821 245.643,383.642 242.800 C 383.927 241.810,384.308 240.897,384.488 240.772 C 384.829 240.534,386.004 236.817,387.642 230.800 C 387.911 229.810,388.264 228.910,388.425 228.800 C 388.785 228.554,391.477 215.509,391.850 212.200 C 391.999 210.880,392.263 209.706,392.436 209.592 C 394.727 208.075,394.652 158.523,392.357 157.667 C 392.161 157.593,392.000 157.113,392.000 156.599 C 392.000 156.085,391.349 152.455,390.554 148.532 C 389.758 144.610,389.018 140.905,388.908 140.300 C 388.799 139.695,388.564 139.200,388.386 139.200 C 388.209 139.200,387.947 138.615,387.805 137.900 C 387.403 135.886,384.704 127.424,384.391 127.200 C 384.238 127.090,383.706 125.830,383.209 124.400 C 381.871 120.550,380.744 118.000,380.378 118.000 C 380.200 118.000,379.932 117.595,379.783 117.100 C 379.272 115.401,377.083 111.041,376.342 110.245 C 375.934 109.807,375.600 109.204,375.600 108.903 C 375.600 108.603,375.150 107.695,374.600 106.886 C 374.050 106.077,373.595 105.231,373.589 105.007 C 373.583 104.783,373.047 104.079,372.397 103.442 C 371.748 102.805,371.098 101.908,370.952 101.450 C 370.681 100.596,369.335 98.530,368.577 97.805 C 368.345 97.582,367.627 96.680,366.982 95.800 C 364.587 92.533,357.439 84.800,356.813 84.800 C 356.623 84.800,356.407 84.650,356.333 84.466 C 356.102 83.886,350.273 78.801,349.826 78.789 C 349.592 78.783,348.887 78.255,348.260 77.615 C 347.633 76.976,346.527 76.172,345.803 75.828 C 345.079 75.484,343.948 74.731,343.289 74.153 C 342.631 73.576,340.985 72.613,339.631 72.014 C 338.277 71.414,336.687 70.536,336.098 70.062 C 335.508 69.588,334.745 69.200,334.402 69.200 C 334.059 69.200,333.423 68.957,332.989 68.660 C 332.555 68.362,331.148 67.792,329.862 67.393 C 328.576 66.993,327.306 66.449,327.040 66.183 C 326.545 65.688,315.713 62.800,314.352 62.800 C 313.938 62.800,313.600 62.643,313.600 62.451 C 313.600 60.955,287.045 59.769,277.200 60.826 M79.206 66.033 C 79.209 66.345,79.390 66.870,79.607 67.200 C 79.921 67.676,79.977 67.616,79.878 66.910 C 79.735 65.887,79.197 65.184,79.206 66.033 M108.006 68.671 C 108.018 69.284,108.755 70.178,109.026 69.907 C 109.174 69.759,109.004 69.347,108.648 68.990 C 108.291 68.634,108.003 68.491,108.006 68.671 M81.200 71.429 C 81.200 71.554,81.470 71.927,81.800 72.257 C 82.451 72.908,82.533 72.811,82.157 71.833 C 81.929 71.238,81.200 70.930,81.200 71.429 M82.825 74.281 C 82.786 75.037,83.687 76.800,84.113 76.800 C 84.335 76.800,84.315 76.579,84.065 76.278 C 83.827 75.992,83.456 75.317,83.241 74.778 C 83.027 74.240,82.839 74.017,82.825 74.281 M84.557 78.633 C 84.691 78.981,84.800 79.341,84.800 79.433 C 84.800 79.525,85.002 79.600,85.249 79.600 C 85.579 79.600,85.580 79.458,85.252 79.063 C 85.007 78.768,84.925 78.408,85.070 78.263 C 85.215 78.118,85.104 78.000,84.824 78.000 C 84.524 78.000,84.414 78.260,84.557 78.633 M86.030 81.200 C 86.028 81.776,87.157 84.066,87.186 83.546 C 87.194 83.406,86.937 82.686,86.616 81.946 C 86.294 81.206,86.031 80.870,86.030 81.200 M88.406 87.100 C 88.417 87.647,89.153 88.581,89.388 88.346 C 89.703 88.031,89.201 86.800,88.757 86.800 C 88.561 86.800,88.403 86.935,88.406 87.100 M116.006 88.300 C 116.017 88.847,116.753 89.781,116.988 89.546 C 117.303 89.231,116.801 88.000,116.357 88.000 C 116.161 88.000,116.003 88.135,116.006 88.300 M261.558 93.492 C 261.691 93.687,262.430 94.089,263.200 94.387 C 264.943 95.062,266.289 96.240,267.099 97.800 C 267.442 98.460,267.968 99.180,268.268 99.400 C 269.499 100.305,269.245 108.400,267.985 108.400 C 267.773 108.400,267.600 108.649,267.600 108.954 C 267.600 109.643,264.809 112.400,264.112 112.400 C 263.830 112.400,263.600 112.558,263.600 112.751 C 263.600 113.165,262.618 113.552,257.900 114.998 C 255.975 115.588,254.265 116.308,254.100 116.597 C 253.830 117.069,252.045 118.148,248.600 119.920 C 247.940 120.260,247.300 120.685,247.178 120.866 C 246.739 121.517,242.183 123.625,240.707 123.861 C 239.878 123.994,239.200 124.259,239.200 124.451 C 239.200 124.643,238.930 124.800,238.600 124.800 C 238.270 124.800,238.000 124.643,238.000 124.451 C 238.000 124.259,237.263 123.984,236.363 123.841 C 233.828 123.435,231.710 122.153,230.504 120.292 C 229.901 119.361,229.268 118.497,229.096 118.372 C 227.668 117.324,227.793 109.600,229.239 109.600 C 229.438 109.600,229.600 109.337,229.600 109.015 C 229.600 108.377,232.545 105.265,233.812 104.564 C 234.245 104.324,235.500 103.635,236.600 103.033 C 237.700 102.431,238.780 101.720,239.000 101.452 C 239.380 100.989,241.044 100.038,244.600 98.249 C 245.480 97.807,246.301 97.300,246.423 97.123 C 246.730 96.681,251.046 95.016,253.547 94.375 C 254.676 94.086,255.600 93.714,255.600 93.550 C 255.600 92.834,261.069 92.781,261.558 93.492 M197.829 95.829 C 197.146 96.511,196.999 97.200,197.536 97.200 C 197.720 97.200,198.077 96.750,198.327 96.200 C 198.853 95.045,198.715 94.942,197.829 95.829 M92.813 96.700 C 92.820 96.865,93.114 97.360,93.467 97.800 C 94.030 98.503,94.077 98.511,93.854 97.867 C 93.714 97.464,93.600 96.969,93.600 96.767 C 93.600 96.565,93.420 96.400,93.200 96.400 C 92.980 96.400,92.806 96.535,92.813 96.700 M96.406 105.500 C 96.417 106.047,97.153 106.981,97.388 106.746 C 97.703 106.431,97.201 105.200,96.757 105.200 C 96.561 105.200,96.403 105.335,96.406 105.500 M132.400 108.000 C 132.400 108.465,134.548 108.465,136.000 108.000 C 136.763 107.756,136.455 107.670,134.700 107.640 C 133.407 107.617,132.400 107.775,132.400 108.000 M156.600 108.000 C 158.393 108.456,161.200 108.456,161.200 108.000 C 161.200 107.766,159.998 107.620,158.300 107.647 C 156.118 107.683,155.697 107.770,156.600 108.000 M126.000 108.400 C 126.000 108.620,126.439 108.800,126.976 108.800 C 127.513 108.800,128.064 108.620,128.200 108.400 C 128.344 108.167,127.937 108.000,127.224 108.000 C 126.551 108.000,126.000 108.180,126.000 108.400 M165.600 108.400 C 165.600 108.620,166.320 108.800,167.200 108.800 C 168.080 108.800,168.800 108.620,168.800 108.400 C 168.800 108.180,168.080 108.000,167.200 108.000 C 166.320 108.000,165.600 108.180,165.600 108.400 M172.000 108.724 C 172.000 108.934,172.370 109.204,172.823 109.322 C 173.346 109.459,173.589 109.367,173.490 109.069 C 173.298 108.493,172.000 108.193,172.000 108.724 M189.802 109.198 C 189.403 109.639,189.262 110.000,189.489 110.000 C 189.992 110.000,190.990 108.857,190.721 108.588 C 190.615 108.482,190.202 108.756,189.802 109.198 M173.999 113.050 C 173.999 114.855,173.123 120.060,172.270 123.327 C 171.930 124.627,171.831 125.696,172.038 125.823 C 172.237 125.947,172.400 125.857,172.400 125.624 C 172.400 125.373,173.378 125.200,174.800 125.200 C 176.667 125.200,177.200 125.333,177.200 125.800 C 177.200 126.130,177.380 126.400,177.600 126.400 C 177.820 126.400,178.000 125.962,178.000 125.428 C 178.000 124.893,178.787 122.328,179.749 119.728 C 181.829 114.106,182.135 112.931,181.601 112.601 C 181.381 112.464,181.200 112.543,181.200 112.776 C 181.200 113.009,180.930 113.200,180.600 113.200 C 180.270 113.200,180.000 113.044,180.000 112.854 C 180.000 112.664,179.235 112.401,178.300 112.270 C 177.365 112.139,176.015 111.912,175.300 111.766 C 174.011 111.502,174.000 111.514,173.999 113.050 M98.000 112.400 C 98.000 112.620,98.270 112.800,98.600 112.800 C 98.930 112.800,99.200 112.620,99.200 112.400 C 99.200 112.180,98.930 112.000,98.600 112.000 C 98.270 112.000,98.000 112.180,98.000 112.400 M185.200 112.400 C 185.200 112.620,185.470 112.800,185.800 112.800 C 186.130 112.800,186.400 112.620,186.400 112.400 C 186.400 112.180,186.130 112.000,185.800 112.000 C 185.470 112.000,185.200 112.180,185.200 112.400 M96.000 112.800 C 96.000 113.020,96.270 113.200,96.600 113.200 C 96.930 113.200,97.200 113.020,97.200 112.800 C 97.200 112.580,96.930 112.400,96.600 112.400 C 96.270 112.400,96.000 112.580,96.000 112.800 M76.118 119.490 C 75.413 119.841,74.740 120.378,74.623 120.685 C 74.391 121.288,74.519 121.230,76.756 119.717 C 78.310 118.666,77.997 118.554,76.118 119.490 M220.000 126.086 C 221.787 126.635,223.143 127.695,224.125 129.309 C 224.552 130.011,225.116 130.769,225.379 130.993 C 226.859 132.255,226.742 139.437,225.225 140.387 C 224.793 140.658,222.653 144.933,221.964 146.900 C 221.676 147.725,221.320 148.400,221.174 148.400 C 220.849 148.400,219.939 150.814,218.762 154.800 C 218.274 156.450,217.725 157.900,217.540 158.022 C 215.806 159.171,214.341 178.062,215.216 188.000 C 216.196 199.136,214.703 202.843,208.514 204.642 C 199.800 207.175,195.104 201.904,194.518 188.930 C 194.385 185.998,194.124 183.600,193.938 183.600 C 193.752 183.600,193.600 181.620,193.600 179.200 C 193.600 176.780,193.742 174.800,193.915 174.800 C 194.089 174.800,194.457 172.235,194.734 169.100 C 195.186 163.974,195.667 161.053,197.218 154.000 C 197.484 152.790,197.826 151.710,197.978 151.600 C 198.130 151.490,198.962 149.253,199.827 146.629 C 200.692 144.005,201.630 141.627,201.911 141.346 C 202.193 141.064,202.694 140.067,203.024 139.131 C 203.925 136.578,205.647 133.200,206.047 133.200 C 206.241 133.200,206.400 133.002,206.400 132.760 C 206.400 132.518,207.049 131.269,207.842 129.985 C 210.354 125.915,214.801 124.489,220.000 126.086 M68.643 126.633 C 68.321 127.472,68.335 127.600,68.753 127.600 C 68.948 127.600,69.201 127.240,69.316 126.800 C 69.563 125.855,68.995 125.714,68.643 126.633 M170.979 128.366 C 171.103 128.567,170.979 128.812,170.702 128.911 C 170.426 129.010,170.345 129.245,170.522 129.434 C 170.699 129.622,171.011 129.512,171.216 129.188 C 171.708 128.409,171.695 128.000,171.176 128.000 C 170.943 128.000,170.855 128.165,170.979 128.366 M180.800 129.157 C 180.800 129.354,181.085 129.624,181.433 129.757 C 182.411 130.133,182.508 130.051,181.857 129.400 C 181.177 128.720,180.800 128.633,180.800 129.157 M154.800 132.400 C 154.800 132.620,155.250 132.800,155.800 132.800 C 156.350 132.800,156.800 132.620,156.800 132.400 C 156.800 132.180,156.350 132.000,155.800 132.000 C 155.250 132.000,154.800 132.180,154.800 132.400 M149.200 132.800 C 149.200 133.020,149.830 133.200,150.600 133.200 C 151.370 133.200,152.000 133.020,152.000 132.800 C 152.000 132.580,151.370 132.400,150.600 132.400 C 149.830 132.400,149.200 132.580,149.200 132.800 M143.600 133.200 C 143.154 133.488,143.384 133.589,144.500 133.594 C 145.325 133.597,146.000 133.420,146.000 133.200 C 146.000 132.691,144.388 132.691,143.600 133.200 M138.000 133.600 C 137.053 133.903,137.068 133.922,138.300 133.960 C 139.015 133.982,139.600 133.820,139.600 133.600 C 139.600 133.148,139.412 133.148,138.000 133.600 M132.800 134.000 C 131.860 134.301,131.879 134.323,133.124 134.360 C 133.913 134.384,134.347 134.238,134.200 134.000 C 134.064 133.780,133.918 133.618,133.876 133.640 C 133.834 133.662,133.350 133.824,132.800 134.000 M65.600 139.976 C 65.600 140.403,65.780 140.864,66.000 141.000 C 66.227 141.140,66.400 140.804,66.400 140.224 C 66.400 139.661,66.220 139.200,66.000 139.200 C 65.780 139.200,65.600 139.549,65.600 139.976 M102.493 142.800 C 102.493 143.570,102.575 143.885,102.676 143.500 C 102.776 143.115,102.776 142.485,102.676 142.100 C 102.575 141.715,102.493 142.030,102.493 142.800 M65.200 144.400 C 65.200 145.060,65.380 145.600,65.600 145.600 C 65.820 145.600,66.000 145.060,66.000 144.400 C 66.000 143.740,65.820 143.200,65.600 143.200 C 65.380 143.200,65.200 143.740,65.200 144.400 M94.684 148.000 C 94.569 148.439,94.638 148.900,94.838 149.023 C 95.037 149.146,95.200 148.787,95.200 148.224 C 95.200 146.998,94.972 146.899,94.684 148.000 M64.806 151.300 C 64.811 152.803,64.922 153.230,65.200 152.800 C 65.712 152.008,65.712 149.200,65.200 149.200 C 64.980 149.200,64.803 150.145,64.806 151.300 M94.667 157.700 C 95.014 159.523,95.200 159.581,95.200 157.867 C 95.200 157.060,95.025 156.400,94.810 156.400 C 94.586 156.400,94.525 156.953,94.667 157.700 M100.400 159.624 C 100.400 160.337,100.567 160.744,100.800 160.600 C 101.020 160.464,101.200 159.913,101.200 159.376 C 101.200 158.839,101.020 158.400,100.800 158.400 C 100.580 158.400,100.400 158.951,100.400 159.624 M64.400 171.600 C 64.400 177.760,64.555 182.800,64.743 182.800 C 64.932 182.800,65.074 177.760,65.058 171.600 C 65.042 165.440,64.887 160.400,64.714 160.400 C 64.541 160.400,64.400 165.440,64.400 171.600 M100.000 163.224 C 100.000 163.937,100.167 164.344,100.400 164.200 C 100.620 164.064,100.800 163.513,100.800 162.976 C 100.800 162.439,100.620 162.000,100.400 162.000 C 100.180 162.000,100.000 162.551,100.000 163.224 M99.600 167.024 C 99.600 167.604,99.773 167.940,100.000 167.800 C 100.220 167.664,100.400 167.203,100.400 166.776 C 100.400 166.349,100.220 166.000,100.000 166.000 C 99.780 166.000,99.600 166.461,99.600 167.024 M129.005 173.837 C 128.802 177.640,128.847 179.407,129.157 179.717 C 129.481 180.041,129.600 178.580,129.600 174.280 C 129.600 166.937,129.383 166.776,129.005 173.837 M99.212 170.620 C 99.223 171.654,99.277 171.709,99.654 171.061 C 99.961 170.532,99.958 170.198,99.641 169.881 C 99.320 169.560,99.203 169.759,99.212 170.620 M98.800 174.176 C 98.800 175.402,99.028 175.501,99.316 174.400 C 99.431 173.961,99.362 173.500,99.162 173.377 C 98.963 173.254,98.800 173.613,98.800 174.176 M96.800 176.400 C 96.800 176.840,96.980 177.200,97.200 177.200 C 97.420 177.200,97.600 176.840,97.600 176.400 C 97.600 175.960,97.420 175.600,97.200 175.600 C 96.980 175.600,96.800 175.960,96.800 176.400 M97.200 179.154 C 97.200 179.569,97.486 180.424,97.836 181.054 L 98.472 182.200 98.236 180.850 C 98.106 180.108,98.000 179.253,98.000 178.950 C 98.000 178.648,97.820 178.400,97.600 178.400 C 97.380 178.400,97.200 178.739,97.200 179.154 M128.652 191.700 C 128.256 193.180,128.366 197.600,128.800 197.600 C 129.035 197.600,129.200 196.200,129.200 194.200 C 129.200 190.708,129.073 190.129,128.652 191.700 M64.828 194.700 C 64.812 196.385,64.968 197.600,65.200 197.600 C 65.683 197.600,65.683 193.724,65.200 192.600 C 64.964 192.051,64.847 192.708,64.828 194.700 M65.467 203.467 C 65.040 203.894,65.159 207.600,65.600 207.600 C 65.820 207.600,66.000 206.610,66.000 205.400 C 66.000 203.175,65.948 202.986,65.467 203.467 M128.000 207.400 C 128.000 208.610,128.180 209.600,128.400 209.600 C 128.620 209.600,128.800 208.610,128.800 207.400 C 128.800 206.190,128.620 205.200,128.400 205.200 C 128.180 205.200,128.000 206.190,128.000 207.400 M65.165 211.728 C 64.583 212.161,63.600 213.678,63.600 214.143 C 63.600 214.250,64.148 213.791,64.817 213.121 C 66.061 211.877,66.311 210.876,65.165 211.728 M127.600 218.000 C 127.600 219.100,127.780 220.000,128.000 220.000 C 128.220 220.000,128.400 219.100,128.400 218.000 C 128.400 216.900,128.220 216.000,128.000 216.000 C 127.780 216.000,127.600 216.900,127.600 218.000 M62.946 220.200 C 62.947 222.400,63.014 223.249,63.095 222.087 C 63.176 220.924,63.176 219.124,63.093 218.087 C 63.011 217.049,62.945 218.000,62.946 220.200 M127.601 220.700 C 127.601 220.865,128.328 221.684,129.217 222.520 C 130.105 223.356,131.128 224.661,131.490 225.420 C 131.852 226.179,132.295 226.800,132.474 226.800 C 132.960 226.800,132.868 226.129,132.300 225.529 C 132.025 225.238,131.029 223.965,130.087 222.700 C 128.547 220.632,127.599 219.869,127.601 220.700 M93.473 229.059 C 93.204 234.517,93.521 237.791,94.809 242.833 C 95.726 246.428,96.192 250.763,96.805 261.400 C 97.046 265.580,97.404 270.080,97.601 271.400 C 99.224 282.255,99.605 285.317,99.968 290.400 C 100.195 293.590,100.502 300.107,100.649 304.883 L 100.917 313.566 96.131 313.326 C 88.555 312.945,85.737 314.106,78.124 320.744 C 76.323 322.315,74.513 323.600,74.103 323.600 C 73.693 323.600,72.746 324.230,72.000 325.000 C 71.254 325.770,70.453 326.400,70.222 326.400 C 69.990 326.400,69.333 326.985,68.762 327.700 C 68.191 328.415,67.201 329.270,66.562 329.600 C 65.923 329.930,64.898 330.689,64.283 331.286 C 62.591 332.931,61.003 333.205,50.800 333.607 C 40.810 334.000,37.200 334.312,37.200 334.782 C 37.200 334.942,36.435 335.318,35.500 335.618 C 32.986 336.426,29.799 337.861,29.160 338.474 C 28.529 339.078,20.831 344.338,19.486 345.083 C 19.006 345.349,18.431 345.804,18.207 346.095 C 17.983 346.385,16.630 347.410,15.200 348.373 C 13.770 349.336,12.510 350.256,12.400 350.419 C 12.201 350.712,8.053 353.890,7.603 354.094 C 5.455 355.065,3.547 362.058,4.794 364.389 C 5.779 366.230,12.192 364.957,14.869 362.390 C 15.601 361.687,16.481 360.907,16.825 360.656 C 17.169 360.405,17.877 359.615,18.400 358.900 C 18.923 358.185,19.558 357.600,19.811 357.600 C 20.064 357.600,20.825 357.015,21.503 356.300 C 24.332 353.312,29.102 349.319,31.336 348.068 C 32.251 347.555,33.195 346.887,33.433 346.582 C 33.909 345.976,39.568 343.600,40.538 343.600 C 40.871 343.600,41.458 343.285,41.844 342.900 C 42.773 341.972,59.856 341.936,60.452 342.861 C 60.695 343.238,60.890 343.268,61.100 342.961 C 61.265 342.720,62.507 342.409,63.861 342.271 C 67.037 341.948,71.518 339.867,72.050 338.470 C 72.258 337.922,73.486 336.378,74.780 335.037 C 76.073 333.697,78.927 330.426,81.122 327.769 C 87.661 319.852,90.268 318.323,97.374 318.238 L 100.600 318.200 100.600 320.600 C 100.599 322.447,100.392 323.291,99.700 324.262 C 98.665 325.713,98.528 326.324,99.400 325.600 C 99.730 325.326,100.000 324.841,100.000 324.522 C 100.000 322.958,101.448 324.360,102.150 326.604 C 102.563 327.922,102.948 329.055,103.006 329.123 C 103.064 329.190,104.043 328.940,105.181 328.568 C 108.037 327.634,108.460 328.114,107.236 330.900 C 105.361 335.167,105.913 336.385,109.034 334.868 C 112.821 333.029,114.772 334.166,112.254 336.745 C 109.941 339.113,110.233 339.684,114.321 340.782 C 116.271 341.306,116.712 341.996,116.041 343.470 C 115.505 344.645,115.746 345.052,117.636 346.162 C 118.728 346.803,118.895 346.823,118.689 346.287 C 118.488 345.764,119.381 344.141,120.386 343.200 C 121.075 342.556,123.262 339.502,123.659 338.630 C 123.917 338.063,124.280 337.600,124.464 337.600 C 124.649 337.600,124.800 337.240,124.800 336.800 C 124.800 336.356,124.533 336.000,124.200 336.000 C 123.400 336.000,123.390 333.467,124.188 332.669 C 124.868 331.989,125.986 328.974,125.994 327.796 C 126.004 326.455,124.565 325.953,120.017 325.713 L 115.720 325.486 115.285 324.243 C 115.047 323.559,114.727 322.100,114.575 321.000 C 114.423 319.900,114.097 318.740,113.850 318.423 C 113.513 317.992,113.517 317.917,113.864 318.125 C 114.669 318.607,115.629 318.001,115.234 317.260 C 114.320 315.545,113.946 310.345,114.376 305.323 C 114.897 299.224,114.734 297.224,112.913 287.400 L 111.505 279.800 111.418 257.000 C 111.370 244.460,111.471 232.850,111.643 231.200 C 111.910 228.630,111.859 228.127,111.288 227.690 C 109.815 226.565,101.908 224.662,96.764 224.194 L 93.727 223.918 93.473 229.059 M132.400 227.776 C 132.400 228.093,132.580 228.464,132.800 228.600 C 133.020 228.736,133.200 228.477,133.200 228.024 C 133.200 227.571,133.020 227.200,132.800 227.200 C 132.580 227.200,132.400 227.459,132.400 227.776 M63.600 229.024 C 63.600 229.587,63.763 229.946,63.962 229.823 C 64.162 229.700,64.231 229.239,64.116 228.800 C 63.828 227.699,63.600 227.798,63.600 229.024 M64.006 231.100 C 64.003 231.595,64.180 232.000,64.400 232.000 C 64.901 232.000,64.901 231.576,64.400 230.800 C 64.086 230.315,64.011 230.372,64.006 231.100 M280.007 231.356 C 273.247 233.509,270.361 246.236,274.713 254.700 C 275.081 255.415,275.516 256.000,275.681 256.000 C 275.845 256.000,276.242 256.507,276.562 257.126 C 276.882 257.746,277.922 258.780,278.872 259.425 C 279.822 260.070,280.719 260.762,280.864 260.964 C 281.009 261.166,281.420 261.037,281.782 260.675 C 282.143 260.315,283.104 259.704,283.919 259.317 C 285.649 258.496,290.400 253.885,290.400 253.027 C 290.400 252.704,290.654 252.296,290.964 252.120 C 293.679 250.581,293.963 237.694,291.347 234.800 C 291.048 234.470,290.364 233.647,289.826 232.970 C 288.222 230.955,283.634 230.201,280.007 231.356 M319.400 232.893 C 318.257 233.293,315.200 236.672,315.200 237.534 C 315.200 237.759,314.973 238.181,314.695 238.471 C 313.309 239.924,313.091 241.442,312.784 251.800 C 312.615 257.520,312.598 262.330,312.747 262.488 C 313.110 262.876,319.356 261.331,319.530 260.811 C 319.605 260.585,319.857 260.400,320.089 260.400 C 320.788 260.400,327.200 257.217,327.200 256.870 C 327.200 256.694,328.028 255.930,329.041 255.174 C 334.877 250.817,334.547 241.203,328.341 234.803 L 326.210 232.606 323.405 232.539 C 321.862 232.503,320.060 232.662,319.400 232.893 M64.400 233.600 C 64.400 234.347,64.507 234.453,64.880 234.080 C 65.253 233.707,65.253 233.493,64.880 233.120 C 64.507 232.747,64.400 232.853,64.400 233.600 M132.630 234.519 C 132.451 235.134,132.416 235.749,132.552 235.885 C 133.000 236.333,133.263 235.694,133.108 234.537 L 132.955 233.400 132.630 234.519 M230.131 234.490 C 227.954 235.190,226.411 237.172,225.884 239.945 C 225.627 241.295,225.278 242.400,225.108 242.400 C 224.939 242.400,224.800 242.760,224.800 243.200 C 224.800 243.640,224.954 244.000,225.143 244.000 C 225.332 244.000,225.603 245.116,225.745 246.479 C 226.128 250.141,227.663 254.187,229.507 256.393 C 229.786 256.727,230.569 257.675,231.248 258.500 C 231.927 259.325,232.740 260.000,233.054 260.000 C 233.368 260.000,233.737 260.292,233.874 260.649 C 234.250 261.628,237.745 262.998,242.000 263.835 C 244.090 264.245,245.897 264.714,246.015 264.877 C 246.133 265.039,248.005 265.297,250.174 265.449 L 254.118 265.726 253.873 263.963 C 253.470 261.059,252.815 258.259,252.484 258.022 C 252.314 257.900,251.937 256.810,251.647 255.600 C 250.857 252.302,248.755 246.219,248.353 246.067 C 248.159 245.993,248.000 245.781,248.000 245.595 C 248.000 244.786,245.403 239.714,244.544 238.845 C 244.025 238.320,243.600 237.667,243.600 237.393 C 243.600 234.914,234.745 233.006,230.131 234.490 M64.800 235.400 C 64.800 235.730,64.980 236.000,65.200 236.000 C 65.420 236.000,65.600 235.730,65.600 235.400 C 65.600 235.070,65.420 234.800,65.200 234.800 C 64.980 234.800,64.800 235.070,64.800 235.400 M65.391 238.300 C 65.693 239.916,65.872 240.261,66.226 239.908 C 66.585 239.548,65.953 236.800,65.511 236.800 C 65.266 236.800,65.219 237.380,65.391 238.300 M132.000 238.000 C 132.000 238.440,132.180 238.800,132.400 238.800 C 132.620 238.800,132.800 238.440,132.800 238.000 C 132.800 237.560,132.620 237.200,132.400 237.200 C 132.180 237.200,132.000 237.560,132.000 238.000 M131.600 240.400 C 131.600 240.840,131.780 241.200,132.000 241.200 C 132.220 241.200,132.400 240.840,132.400 240.400 C 132.400 239.960,132.220 239.600,132.000 239.600 C 131.780 239.600,131.600 239.960,131.600 240.400 M131.301 244.200 C 131.305 245.080,131.387 245.393,131.483 244.895 C 131.579 244.398,131.575 243.678,131.475 243.295 C 131.375 242.913,131.296 243.320,131.301 244.200 M68.800 250.087 C 68.800 251.048,69.233 252.000,69.670 252.000 C 69.882 252.000,69.932 251.597,69.782 251.100 C 69.417 249.894,68.800 249.257,68.800 250.087 M69.600 253.600 C 69.600 254.040,69.780 254.400,70.000 254.400 C 70.220 254.400,70.400 254.700,70.400 255.067 C 70.400 255.433,70.491 255.642,70.603 255.531 C 70.919 255.214,70.342 252.800,69.950 252.800 C 69.758 252.800,69.600 253.160,69.600 253.600 M128.969 255.426 C 128.821 256.211,128.891 257.245,129.123 257.726 C 129.474 258.452,129.550 258.211,129.573 256.300 C 129.604 253.684,129.361 253.334,128.969 255.426 M129.228 259.700 C 129.307 261.094,129.944 261.780,129.972 260.500 C 129.987 259.785,129.820 259.200,129.600 259.200 C 129.380 259.200,129.213 259.425,129.228 259.700 M71.628 261.500 C 71.613 262.215,71.780 262.800,72.000 262.800 C 72.475 262.800,72.475 262.105,72.000 261.000 C 71.712 260.330,71.652 260.411,71.628 261.500 M129.937 265.039 C 129.862 266.270,129.935 267.361,130.100 267.462 C 130.265 267.564,130.400 266.557,130.400 265.224 C 130.400 262.181,130.119 262.069,129.937 265.039 M72.006 265.100 C 72.003 266.035,72.180 266.800,72.400 266.800 C 72.910 266.800,72.910 264.790,72.400 264.000 C 72.116 263.561,72.011 263.855,72.006 265.100 M278.400 267.250 C 277.850 267.470,276.545 267.834,275.500 268.058 C 274.455 268.283,273.600 268.596,273.600 268.755 C 273.600 269.113,268.838 269.920,264.733 270.259 C 260.557 270.603,260.571 270.590,261.168 273.662 C 262.326 279.624,262.879 283.022,263.421 287.500 C 263.561 288.655,263.812 289.600,263.980 289.600 C 264.147 289.600,264.402 290.725,264.546 292.100 C 264.691 293.475,264.976 295.950,265.181 297.600 C 266.351 307.015,267.598 319.012,267.599 320.867 C 267.600 321.673,267.756 322.393,267.946 322.467 C 268.136 322.540,268.590 326.279,268.954 330.775 C 269.319 335.272,269.658 338.984,269.709 339.025 C 269.759 339.067,277.180 339.179,286.200 339.275 C 295.220 339.371,302.262 339.376,301.848 339.285 C 301.183 339.140,301.125 338.861,301.344 336.861 C 301.481 335.617,301.797 331.810,302.047 328.400 C 302.297 324.990,302.632 322.110,302.792 322.000 C 302.951 321.890,303.196 320.090,303.336 318.000 C 303.476 315.910,303.766 311.860,303.981 309.000 C 305.223 292.460,305.922 282.458,306.252 276.500 C 306.401 273.805,306.676 271.600,306.862 271.600 C 307.411 271.600,307.248 270.391,306.612 269.755 C 306.109 269.252,305.290 269.231,300.912 269.612 C 295.902 270.048,288.479 269.606,287.400 268.807 C 285.688 267.540,280.096 266.573,278.400 267.250 M72.000 269.000 C 72.000 269.596,72.172 269.941,72.400 269.800 C 72.620 269.664,72.800 269.304,72.800 269.000 C 72.800 268.696,72.620 268.336,72.400 268.200 C 72.172 268.059,72.000 268.404,72.000 269.000 M72.406 275.700 C 72.403 276.745,72.580 277.600,72.800 277.600 C 73.311 277.600,73.311 275.191,72.800 274.400 C 72.520 273.966,72.411 274.326,72.406 275.700 M170.126 274.259 C 170.405 274.538,176.875 274.458,177.161 274.172 C 177.256 274.077,175.653 274.000,173.600 274.000 C 171.547 274.000,169.983 274.117,170.126 274.259 M166.252 274.812 C 166.525 275.085,166.991 275.094,167.632 274.838 C 168.542 274.474,168.517 274.449,167.220 274.425 C 166.273 274.408,165.969 274.529,166.252 274.812 M164.000 275.200 C 164.000 275.701,164.424 275.701,165.200 275.200 C 165.685 274.886,165.628 274.811,164.900 274.806 C 164.405 274.803,164.000 274.980,164.000 275.200 M161.600 275.600 C 161.600 275.820,161.870 276.000,162.200 276.000 C 162.530 276.000,162.800 275.820,162.800 275.600 C 162.800 275.380,162.530 275.200,162.200 275.200 C 161.870 275.200,161.600 275.380,161.600 275.600 M130.011 276.200 C 130.008 276.640,130.363 277.540,130.800 278.200 C 131.811 279.727,131.814 279.360,130.809 277.144 C 130.325 276.076,130.015 275.710,130.011 276.200 M159.600 276.000 C 159.600 276.220,159.870 276.400,160.200 276.400 C 160.530 276.400,160.800 276.220,160.800 276.000 C 160.800 275.780,160.530 275.600,160.200 275.600 C 159.870 275.600,159.600 275.780,159.600 276.000 M157.200 276.400 C 157.200 276.620,157.560 276.800,158.000 276.800 C 158.440 276.800,158.800 276.620,158.800 276.400 C 158.800 276.180,158.440 276.000,158.000 276.000 C 157.560 276.000,157.200 276.180,157.200 276.400 M72.800 280.000 C 72.800 280.660,72.980 281.200,73.200 281.200 C 73.420 281.200,73.600 280.660,73.600 280.000 C 73.600 279.340,73.420 278.800,73.200 278.800 C 72.980 278.800,72.800 279.340,72.800 280.000 M145.900 279.076 C 144.732 279.381,145.117 280.035,146.300 279.756 C 147.680 279.431,148.449 278.783,147.380 278.846 C 146.951 278.872,146.285 278.975,145.900 279.076 M132.000 279.592 C 132.000 280.074,135.189 281.744,135.505 281.428 C 135.631 281.303,135.522 281.200,135.264 281.200 C 135.006 281.200,134.403 280.750,133.925 280.200 C 133.051 279.194,132.000 278.863,132.000 279.592 M182.800 280.600 C 182.800 281.370,182.980 282.000,183.200 282.000 C 183.420 282.000,183.600 281.370,183.600 280.600 C 183.600 279.830,183.420 279.200,183.200 279.200 C 182.980 279.200,182.800 279.830,182.800 280.600 M143.200 280.000 C 143.200 280.220,143.470 280.400,143.800 280.400 C 144.130 280.400,144.400 280.220,144.400 280.000 C 144.400 279.780,144.130 279.600,143.800 279.600 C 143.470 279.600,143.200 279.780,143.200 280.000 M182.400 283.400 C 182.400 283.730,182.580 284.000,182.800 284.000 C 183.020 284.000,183.200 283.730,183.200 283.400 C 183.200 283.070,183.020 282.800,182.800 282.800 C 182.580 282.800,182.400 283.070,182.400 283.400 M73.200 284.800 C 73.200 285.460,73.380 286.000,73.600 286.000 C 73.820 286.000,74.000 285.460,74.000 284.800 C 74.000 284.140,73.820 283.600,73.600 283.600 C 73.380 283.600,73.200 284.140,73.200 284.800 M182.000 285.000 C 182.000 285.330,182.180 285.600,182.400 285.600 C 182.620 285.600,182.800 285.330,182.800 285.000 C 182.800 284.670,182.620 284.400,182.400 284.400 C 182.180 284.400,182.000 284.670,182.000 285.000 M180.691 288.264 C 179.472 290.783,179.468 291.567,180.685 289.505 C 181.389 288.312,182.191 286.000,181.901 286.000 C 181.838 286.000,181.294 287.019,180.691 288.264 M74.101 289.000 C 74.105 289.880,74.187 290.193,74.283 289.695 C 74.379 289.198,74.375 288.478,74.275 288.095 C 74.175 287.713,74.096 288.120,74.101 289.000 M177.800 293.200 C 177.459 293.860,177.352 294.400,177.563 294.400 C 177.774 294.400,178.060 294.040,178.200 293.600 C 178.340 293.160,178.622 292.800,178.827 292.800 C 179.032 292.800,179.200 292.620,179.200 292.400 C 179.200 291.582,178.400 292.039,177.800 293.200 M74.501 294.200 C 74.505 295.080,74.587 295.393,74.683 294.895 C 74.779 294.398,74.775 293.678,74.675 293.295 C 74.575 292.913,74.496 293.320,74.501 294.200 M158.995 293.354 C 158.558 293.674,158.195 294.085,158.190 294.268 C 158.167 294.984,156.470 297.133,153.693 299.959 C 152.094 301.587,150.899 303.027,151.038 303.159 C 151.286 303.396,157.098 297.427,159.067 294.913 C 160.242 293.413,160.199 292.474,158.995 293.354 M156.300 295.029 C 155.695 295.357,155.200 295.800,155.200 296.013 C 155.200 296.602,155.461 296.490,156.638 295.400 C 157.875 294.253,157.827 294.200,156.300 295.029 M152.905 297.304 C 151.973 297.986,151.282 298.615,151.369 298.702 C 151.606 298.939,154.800 296.747,154.800 296.347 C 154.800 295.900,154.880 295.860,152.905 297.304 M175.196 296.897 C 173.968 298.744,173.948 298.795,174.560 298.560 C 175.108 298.350,176.400 296.703,176.400 296.214 C 176.400 295.701,175.744 296.073,175.196 296.897 M74.914 299.400 C 74.917 300.500,74.995 300.903,75.087 300.295 C 75.179 299.686,75.177 298.786,75.082 298.295 C 74.987 297.803,74.911 298.300,74.914 299.400 M149.600 299.521 C 149.050 299.894,148.540 300.335,148.467 300.500 C 148.393 300.665,148.078 300.800,147.767 300.800 C 147.455 300.800,147.200 300.995,147.200 301.233 C 147.200 301.472,147.335 301.601,147.500 301.520 C 149.349 300.619,149.914 300.230,150.325 299.572 C 150.899 298.653,150.881 298.651,149.600 299.521 M171.562 301.646 C 170.391 303.044,170.108 303.571,170.695 303.256 C 171.686 302.726,173.818 300.085,173.506 299.773 C 173.394 299.660,172.519 300.503,171.562 301.646 M144.300 303.029 C 143.695 303.357,143.200 303.800,143.200 304.013 C 143.200 304.800,144.174 304.344,145.149 303.100 C 145.806 302.262,145.726 302.255,144.300 303.029 M142.207 304.389 C 142.057 304.632,140.959 305.381,139.767 306.053 C 138.575 306.726,137.603 307.484,137.606 307.738 C 137.611 308.073,137.693 308.078,137.906 307.754 C 138.068 307.508,138.920 306.937,139.800 306.485 C 141.943 305.383,143.055 304.522,142.739 304.206 C 142.597 304.063,142.357 304.146,142.207 304.389 M149.192 304.610 C 148.419 305.541,148.971 305.717,149.798 304.802 C 150.197 304.361,150.338 304.000,150.111 304.000 C 149.884 304.000,149.470 304.274,149.192 304.610 M169.146 304.698 C 167.722 306.417,167.561 306.894,168.804 305.713 C 169.549 305.005,170.062 304.329,169.944 304.210 C 169.825 304.092,169.467 304.311,169.146 304.698 M75.324 307.800 C 75.326 309.120,75.401 309.612,75.490 308.893 C 75.579 308.174,75.577 307.094,75.486 306.493 C 75.395 305.892,75.322 306.480,75.324 307.800 M166.159 308.100 C 164.112 310.461,163.940 310.866,165.600 309.419 C 166.590 308.555,167.460 307.703,167.533 307.524 C 167.808 306.857,166.911 307.233,166.159 308.100 M134.178 309.339 C 130.749 311.261,128.028 312.961,128.164 313.097 C 128.344 313.277,130.885 312.042,131.200 311.621 C 131.310 311.475,131.940 311.134,132.600 310.863 C 133.920 310.323,136.037 308.800,135.400 308.848 C 135.180 308.865,134.630 309.086,134.178 309.339 M141.873 312.260 C 140.396 313.723,139.285 315.018,139.405 315.139 C 139.525 315.259,140.440 314.467,141.438 313.378 C 142.436 312.290,143.632 310.995,144.096 310.500 C 145.924 308.549,144.409 309.749,141.873 312.260 M74.893 313.600 C 74.893 314.370,74.975 314.685,75.076 314.300 C 75.176 313.915,75.176 313.285,75.076 312.900 C 74.975 312.515,74.893 312.830,74.893 313.600 M157.749 317.043 C 155.357 319.596,152.860 321.929,152.200 322.227 C 151.246 322.658,151.169 322.772,151.821 322.784 C 152.642 322.800,162.400 313.573,162.400 312.781 C 162.400 312.111,162.173 312.319,157.749 317.043 M74.493 317.200 C 74.493 317.970,74.575 318.285,74.676 317.900 C 74.776 317.515,74.776 316.885,74.676 316.500 C 74.575 316.115,74.493 316.430,74.493 317.200 M118.000 317.098 C 117.010 317.448,116.423 317.808,116.697 317.899 C 117.374 318.125,120.000 317.227,120.000 316.769 C 120.000 316.566,119.955 316.414,119.900 316.432 C 119.845 316.449,118.990 316.749,118.000 317.098 M138.800 316.813 C 138.800 317.039,139.050 317.321,139.356 317.438 C 140.330 317.812,138.126 319.571,135.776 320.295 C 132.859 321.193,129.978 324.000,131.973 324.000 C 132.178 324.000,132.451 324.315,132.580 324.700 C 132.709 325.085,133.456 326.112,134.241 326.982 C 137.028 330.073,135.578 332.200,130.684 332.200 C 127.049 332.200,125.917 333.247,128.600 334.127 C 129.260 334.343,129.896 334.666,130.013 334.843 C 130.131 335.021,131.661 335.284,133.413 335.427 L 136.600 335.688 138.431 333.944 C 141.537 330.985,145.153 327.816,145.587 327.671 C 145.814 327.595,146.000 327.293,146.000 327.000 C 146.000 326.707,146.720 325.897,147.600 325.200 C 148.480 324.503,149.200 323.678,149.200 323.366 C 149.200 323.055,149.515 322.795,149.900 322.790 C 150.285 322.784,149.430 322.379,148.000 321.890 C 144.931 320.840,141.846 319.098,140.269 317.527 C 139.039 316.301,138.800 316.185,138.800 316.813 M95.003 332.393 C 92.614 337.157,92.598 337.200,93.224 337.200 C 93.457 337.200,93.548 337.039,93.426 336.842 C 93.304 336.645,93.474 336.381,93.802 336.254 C 94.131 336.128,94.400 335.741,94.400 335.394 C 94.400 335.047,94.850 333.918,95.400 332.885 C 95.950 331.852,96.400 330.820,96.400 330.592 C 96.400 330.364,96.760 329.870,97.200 329.493 C 98.052 328.763,98.259 328.000,97.603 328.000 C 97.385 328.000,96.215 329.977,95.003 332.393 M100.243 330.633 C 100.093 331.023,100.182 331.206,100.475 331.108 C 101.073 330.909,101.402 330.000,100.876 330.000 C 100.661 330.000,100.376 330.285,100.243 330.633 M91.800 339.600 C 91.650 340.073,91.617 340.550,91.727 340.660 C 91.837 340.770,92.050 340.473,92.200 340.000 C 92.350 339.527,92.383 339.050,92.273 338.940 C 92.163 338.830,91.950 339.127,91.800 339.600 M243.338 341.817 C 243.014 342.661,243.555 343.117,244.016 342.388 C 244.505 341.614,244.495 341.200,243.987 341.200 C 243.761 341.200,243.468 341.478,243.338 341.817 M70.901 344.600 C 70.905 345.480,70.987 345.793,71.083 345.295 C 71.179 344.798,71.175 344.078,71.075 343.695 C 70.975 343.313,70.896 343.720,70.901 344.600 M242.800 345.376 C 242.800 346.602,243.028 346.701,243.316 345.600 C 243.431 345.161,243.362 344.700,243.162 344.577 C 242.963 344.454,242.800 344.813,242.800 345.376 M89.200 347.000 C 89.200 347.330,89.380 347.600,89.600 347.600 C 89.820 347.600,90.000 347.330,90.000 347.000 C 90.000 346.670,89.820 346.400,89.600 346.400 C 89.380 346.400,89.200 346.670,89.200 347.000 M119.889 347.630 C 120.378 348.139,120.878 348.455,121.001 348.332 C 121.124 348.209,120.724 347.792,120.112 347.406 L 119.000 346.704 119.889 347.630 M320.893 348.400 C 320.893 349.170,320.975 349.485,321.076 349.100 C 321.176 348.715,321.176 348.085,321.076 347.700 C 320.975 347.315,320.893 347.630,320.893 348.400 M241.323 349.678 C 240.841 349.911,240.346 350.364,240.223 350.684 C 240.100 351.005,240.135 351.201,240.300 351.121 C 242.237 350.177,242.800 349.820,242.800 349.536 C 242.800 349.109,242.425 349.145,241.323 349.678 M99.200 350.800 C 99.200 351.020,100.168 351.200,101.351 351.200 C 102.775 351.200,103.670 351.403,104.000 351.800 C 104.604 352.527,105.250 352.593,104.980 351.900 C 104.517 350.709,99.200 349.697,99.200 350.800 M69.600 352.424 C 69.600 353.137,69.767 353.544,70.000 353.400 C 70.220 353.264,70.400 352.713,70.400 352.176 C 70.400 351.639,70.220 351.200,70.000 351.200 C 69.780 351.200,69.600 351.751,69.600 352.424 M106.283 353.969 C 107.231 354.860,107.600 354.999,107.600 354.464 C 107.600 354.280,107.105 353.905,106.500 353.633 L 105.400 353.137 106.283 353.969 M110.900 353.688 C 110.405 353.927,110.000 354.275,110.000 354.461 C 110.000 354.994,110.365 354.864,111.292 354.000 C 112.252 353.105,112.198 353.062,110.900 353.688 M87.693 354.800 C 87.693 355.570,87.775 355.885,87.876 355.500 C 87.976 355.115,87.976 354.485,87.876 354.100 C 87.775 353.715,87.693 354.030,87.693 354.800 M114.990 354.248 C 115.347 354.604,115.759 354.774,115.907 354.626 C 116.056 354.478,115.912 354.189,115.588 353.984 C 114.643 353.387,114.287 353.544,114.990 354.248 M238.800 355.533 C 238.800 356.670,238.940 357.600,239.111 357.600 C 239.492 357.600,239.462 354.128,239.077 353.744 C 238.925 353.591,238.800 354.397,238.800 355.533 M116.800 354.867 C 116.800 355.050,117.340 355.200,118.000 355.200 C 118.660 355.200,119.200 355.050,119.200 354.867 C 119.200 354.683,118.660 354.533,118.000 354.533 C 117.340 354.533,116.800 354.683,116.800 354.867 M69.200 356.800 C 69.200 357.460,69.380 358.000,69.600 358.000 C 69.820 358.000,70.000 357.460,70.000 356.800 C 70.000 356.140,69.820 355.600,69.600 355.600 C 69.380 355.600,69.200 356.140,69.200 356.800 M87.100 357.410 C 86.994 357.965,87.063 358.515,87.254 358.633 C 87.444 358.751,87.600 358.297,87.600 357.624 C 87.600 356.139,87.363 356.037,87.100 357.410 M239.200 358.553 C 239.200 358.883,239.380 359.264,239.600 359.400 C 239.820 359.536,240.000 359.377,240.000 359.047 C 240.000 358.717,239.820 358.336,239.600 358.200 C 239.380 358.064,239.200 358.223,239.200 358.553 M68.806 362.300 C 68.810 363.933,68.925 364.426,69.200 364.000 C 69.712 363.208,69.712 360.000,69.200 360.000 C 68.979 360.000,68.803 361.029,68.806 362.300 M87.324 369.000 C 87.326 370.320,87.401 370.812,87.490 370.093 C 87.579 369.374,87.577 368.294,87.486 367.693 C 87.395 367.092,87.322 367.680,87.324 369.000 M322.915 369.338 C 321.575 370.238,321.247 370.816,322.100 370.778 C 322.375 370.766,323.019 370.226,323.530 369.578 C 324.613 368.207,324.604 368.204,322.915 369.338 M68.840 372.100 C 68.816 374.193,68.961 375.600,69.200 375.600 C 69.671 375.600,69.671 371.069,69.200 369.600 C 68.983 368.924,68.867 369.733,68.840 372.100 M241.735 370.055 C 239.722 371.856,239.200 372.417,239.200 372.782 C 239.200 373.509,239.935 373.234,240.197 372.408 C 240.336 371.973,240.978 371.304,241.624 370.922 C 242.271 370.540,242.800 370.086,242.800 369.914 C 242.800 369.486,242.298 369.553,241.735 370.055 M87.728 376.400 C 87.728 377.830,87.801 378.415,87.889 377.700 C 87.978 376.985,87.978 375.815,87.889 375.100 C 87.801 374.385,87.728 374.970,87.728 376.400 M320.509 376.400 C 320.509 377.390,320.587 377.795,320.682 377.300 C 320.778 376.805,320.778 375.995,320.682 375.500 C 320.587 375.005,320.509 375.410,320.509 376.400 M69.467 377.867 C 69.038 378.295,69.160 382.800,69.600 382.800 C 69.826 382.800,70.000 381.667,70.000 380.200 C 70.000 377.582,69.954 377.380,69.467 377.867 M238.800 378.003 C 238.800 379.178,241.478 382.400,242.454 382.400 C 243.121 382.400,242.792 381.651,242.018 381.406 C 241.060 381.102,239.115 378.861,239.404 378.394 C 239.519 378.208,239.430 377.942,239.207 377.804 C 238.983 377.666,238.800 377.755,238.800 378.003 M323.200 381.353 C 323.200 381.683,323.380 382.064,323.600 382.200 C 323.820 382.336,324.000 382.177,324.000 381.847 C 324.000 381.517,323.820 381.136,323.600 381.000 C 323.380 380.864,323.200 381.023,323.200 381.353 M88.128 386.000 C 88.128 387.430,88.201 388.015,88.289 387.300 C 88.378 386.585,88.378 385.415,88.289 384.700 C 88.201 383.985,88.128 384.570,88.128 386.000 M69.600 387.976 C 69.600 389.592,69.771 390.800,70.000 390.800 C 70.225 390.800,70.400 389.675,70.400 388.224 C 70.400 386.807,70.220 385.536,70.000 385.400 C 69.748 385.244,69.600 386.196,69.600 387.976 M323.908 386.383 C 323.631 387.367,323.797 387.937,324.232 387.501 C 324.360 387.373,324.401 386.848,324.324 386.334 L 324.184 385.400 323.908 386.383 M243.129 387.800 C 242.871 388.999,242.996 389.538,243.430 389.103 C 243.557 388.977,243.599 388.362,243.524 387.737 L 243.387 386.600 243.129 387.800 M321.865 390.000 C 321.242 390.660,320.882 391.194,321.066 391.187 C 321.458 391.173,323.600 389.340,323.600 389.019 C 323.600 388.499,322.918 388.884,321.865 390.000 M239.913 390.300 C 239.044 391.296,238.400 392.633,238.400 393.440 C 238.400 394.359,238.779 393.947,239.003 392.786 C 239.100 392.279,239.668 391.355,240.265 390.732 C 240.862 390.110,241.164 389.600,240.937 389.600 C 240.710 389.600,240.249 389.915,239.913 390.300 M88.531 394.200 C 88.533 395.740,88.605 396.321,88.692 395.491 C 88.779 394.661,88.777 393.401,88.689 392.691 C 88.600 391.981,88.529 392.660,88.531 394.200 M70.514 393.800 C 70.517 394.900,70.595 395.303,70.687 394.695 C 70.779 394.086,70.777 393.186,70.682 392.695 C 70.587 392.203,70.511 392.700,70.514 393.800 M319.067 392.267 C 318.645 392.688,318.756 394.800,319.200 394.800 C 319.420 394.800,319.600 394.170,319.600 393.400 C 319.600 391.961,319.527 391.806,319.067 392.267 M238.427 397.200 C 238.393 398.045,239.892 400.400,240.464 400.400 C 240.725 400.400,240.559 399.995,240.094 399.500 C 239.629 399.005,239.069 398.150,238.849 397.600 C 238.630 397.050,238.440 396.870,238.427 397.200 M70.914 400.600 C 70.917 401.700,70.995 402.103,71.087 401.495 C 71.179 400.886,71.177 399.986,71.082 399.495 C 70.987 399.003,70.911 399.500,70.914 400.600 M322.400 400.318 C 322.400 400.529,322.691 400.943,323.046 401.238 C 323.605 401.702,323.673 401.673,323.546 401.020 C 323.395 400.243,322.400 399.633,322.400 400.318 M241.600 401.200 C 241.600 401.420,241.870 401.600,242.200 401.600 C 242.530 401.600,242.800 401.420,242.800 401.200 C 242.800 400.980,242.530 400.800,242.200 400.800 C 241.870 400.800,241.600 400.980,241.600 401.200 M243.675 401.625 C 243.771 401.914,244.086 402.229,244.375 402.325 C 244.675 402.425,244.825 402.275,244.725 401.975 C 244.629 401.686,244.314 401.371,244.025 401.275 C 243.725 401.175,243.575 401.325,243.675 401.625 M88.800 404.424 C 88.800 405.937,88.950 406.754,89.200 406.600 C 89.420 406.464,89.600 405.373,89.600 404.176 C 89.600 402.979,89.420 402.000,89.200 402.000 C 88.977 402.000,88.800 403.075,88.800 404.424 M323.379 404.200 C 323.367 405.410,323.502 406.400,323.679 406.400 C 323.855 406.400,324.000 405.410,324.000 404.200 C 324.000 402.990,323.865 402.000,323.700 402.000 C 323.535 402.001,323.390 402.991,323.379 404.200 M71.309 406.400 C 71.309 407.390,71.387 407.795,71.482 407.300 C 71.578 406.805,71.578 405.995,71.482 405.500 C 71.387 405.005,71.309 405.410,71.309 406.400 M322.800 407.338 C 322.800 407.634,322.440 408.202,322.000 408.600 C 320.979 409.524,320.959 410.157,321.972 409.525 C 323.076 408.835,323.993 406.800,323.200 406.800 C 322.980 406.800,322.800 407.042,322.800 407.338 M89.200 412.176 C 89.200 413.813,89.380 415.264,89.600 415.400 C 89.854 415.557,90.000 414.471,90.000 412.424 C 90.000 410.541,89.834 409.200,89.600 409.200 C 89.369 409.200,89.200 410.459,89.200 412.176 M316.543 410.500 C 316.269 410.933,319.689 410.858,320.387 410.416 C 320.785 410.165,320.289 410.070,318.854 410.122 C 317.687 410.165,316.647 410.335,316.543 410.500 M315.218 411.166 C 314.973 411.625,314.939 412.000,315.143 412.000 C 315.554 412.000,316.122 410.788,315.842 410.508 C 315.744 410.411,315.464 410.707,315.218 411.166 M71.641 412.780 C 71.615 413.886,71.741 414.416,71.973 414.180 C 72.192 413.958,72.209 413.219,72.014 412.400 L 71.682 411.000 71.641 412.780 M314.073 413.400 C 313.822 413.950,313.690 414.400,313.780 414.400 C 314.098 414.400,315.200 413.137,315.200 412.771 C 315.200 412.039,314.520 412.419,314.073 413.400 M72.028 417.500 C 72.013 418.215,72.180 418.800,72.400 418.800 C 72.875 418.800,72.875 418.105,72.400 417.000 C 72.112 416.330,72.052 416.411,72.028 417.500 M250.400 417.014 C 250.400 417.493,251.687 419.148,252.218 419.352 C 252.690 419.533,252.704 419.435,252.298 418.785 C 252.028 418.353,251.671 418.000,251.504 418.000 C 251.337 418.000,251.200 417.730,251.200 417.400 C 251.200 417.070,251.020 416.800,250.800 416.800 C 250.580 416.800,250.400 416.896,250.400 417.014 M311.600 417.400 C 311.600 417.730,311.463 418.000,311.296 418.000 C 311.129 418.000,310.772 418.353,310.502 418.785 C 309.757 419.978,310.978 419.398,311.776 418.180 C 312.504 417.069,312.548 416.800,312.000 416.800 C 311.780 416.800,311.600 417.070,311.600 417.400 M88.878 418.824 C 88.403 419.585,88.426 419.614,89.182 419.210 C 89.632 418.969,90.000 418.598,90.000 418.386 C 90.000 417.731,89.419 417.958,88.878 418.824 M84.000 420.828 C 82.570 421.223,80.282 421.558,78.916 421.573 C 76.461 421.600,74.416 422.786,74.393 424.196 C 74.385 424.706,70.494 426.578,67.600 427.464 C 66.390 427.835,65.310 428.265,65.200 428.419 C 65.090 428.573,64.053 429.105,62.895 429.601 C 55.651 432.704,64.730 436.324,73.800 433.950 C 75.560 433.489,77.405 433.021,77.900 432.910 C 78.395 432.798,78.800 432.560,78.800 432.382 C 78.800 431.950,83.090 431.072,83.824 431.354 C 84.141 431.475,84.400 431.837,84.400 432.158 C 84.400 433.627,87.860 434.423,88.911 433.195 C 89.650 432.332,89.861 430.000,89.200 430.000 C 88.980 430.000,88.798 429.775,88.796 429.500 C 88.794 429.225,88.351 428.053,87.812 426.895 C 86.787 424.692,86.465 422.425,86.961 420.900 C 87.122 420.405,87.107 420.025,86.927 420.056 C 86.747 420.086,85.430 420.434,84.000 420.828 M72.400 420.967 C 72.400 421.315,72.685 421.600,73.033 421.600 C 73.740 421.600,73.617 420.739,72.875 420.492 C 72.614 420.405,72.400 420.618,72.400 420.967 M253.200 420.649 C 253.200 420.879,254.100 421.920,255.200 422.961 C 256.300 424.003,257.200 424.701,257.200 424.512 C 257.200 424.324,256.300 423.283,255.200 422.200 C 254.100 421.117,253.200 420.418,253.200 420.649 M307.476 422.323 C 304.934 424.904,305.092 425.266,307.694 422.822 C 308.846 421.740,309.691 420.757,309.570 420.637 C 309.450 420.517,308.508 421.275,307.476 422.323 M303.200 426.200 C 302.922 426.535,302.879 426.800,303.102 426.800 C 303.322 426.800,303.726 426.530,304.000 426.200 C 304.278 425.865,304.321 425.600,304.098 425.600 C 303.878 425.600,303.474 425.870,303.200 426.200 M261.841 428.163 C 261.953 428.454,262.493 428.896,263.041 429.146 C 264.269 429.706,264.400 429.709,264.400 429.176 C 264.400 428.943,264.220 428.864,264.000 429.000 C 263.780 429.136,263.600 429.085,263.600 428.888 C 263.600 428.690,263.159 428.327,262.619 428.082 C 261.837 427.725,261.679 427.742,261.841 428.163 M295.400 430.614 C 294.740 430.917,294.470 431.166,294.800 431.168 C 295.130 431.170,295.850 430.914,296.400 430.600 C 297.665 429.877,296.989 429.887,295.400 430.614 M271.200 432.400 C 271.200 432.620,271.560 432.800,272.000 432.800 C 272.440 432.800,272.800 432.620,272.800 432.400 C 272.800 432.180,272.440 432.000,272.000 432.000 C 271.560 432.000,271.200 432.180,271.200 432.400 M290.000 432.400 C 290.000 432.620,290.360 432.800,290.800 432.800 C 291.240 432.800,291.600 432.620,291.600 432.400 C 291.600 432.180,291.240 432.000,290.800 432.000 C 290.360 432.000,290.000 432.180,290.000 432.400 M273.200 432.800 C 273.200 433.020,273.650 433.200,274.200 433.200 C 274.750 433.200,275.200 433.020,275.200 432.800 C 275.200 432.580,274.750 432.400,274.200 432.400 C 273.650 432.400,273.200 432.580,273.200 432.800 M287.600 432.800 C 287.600 433.020,287.960 433.200,288.400 433.200 C 288.840 433.200,289.200 433.020,289.200 432.800 C 289.200 432.580,288.840 432.400,288.400 432.400 C 287.960 432.400,287.600 432.580,287.600 432.800 M276.800 433.200 C 276.800 433.443,278.600 433.600,281.400 433.600 C 284.200 433.600,286.000 433.443,286.000 433.200 C 286.000 432.957,284.200 432.800,281.400 432.800 C 278.600 432.800,276.800 432.957,276.800 433.200 " stroke="none" fill="#f3b133" fill-rule="evenodd"></path><path id="path2" d="M66.400 212.255 C 63.685 213.374,62.395 223.257,64.245 228.771 C 64.571 229.745,64.791 230.915,64.732 231.371 C 64.673 231.827,64.780 232.450,64.970 232.755 C 65.160 233.060,65.634 234.860,66.025 236.755 C 66.415 238.650,67.124 241.520,67.600 243.134 C 68.076 244.748,68.369 246.164,68.252 246.281 C 68.134 246.399,68.314 246.771,68.650 247.107 C 68.997 247.454,69.168 248.077,69.046 248.545 C 68.924 249.012,69.106 249.676,69.465 250.072 C 69.814 250.458,70.008 251.128,69.894 251.561 C 69.774 252.022,69.919 252.437,70.244 252.562 C 70.600 252.698,70.800 253.398,70.800 254.507 C 70.800 255.460,70.990 256.430,71.222 256.662 C 72.110 257.550,72.821 263.675,72.595 268.498 C 72.436 271.910,72.515 273.454,72.882 274.103 C 73.186 274.643,73.406 276.594,73.433 279.000 C 73.457 281.200,73.685 283.507,73.939 284.126 C 74.192 284.745,74.404 286.635,74.410 288.326 C 74.415 290.017,74.609 292.210,74.839 293.200 C 75.363 295.442,75.602 312.549,75.156 315.800 C 74.975 317.120,74.708 318.956,74.563 319.881 C 74.134 322.618,74.543 323.093,76.159 321.737 C 86.604 312.975,88.658 312.074,96.600 312.781 C 98.360 312.938,100.010 312.993,100.266 312.903 C 101.259 312.557,100.205 289.241,98.752 279.400 C 97.704 272.302,96.921 264.615,96.207 254.400 C 95.747 247.809,95.359 244.865,94.547 241.800 C 93.584 238.163,93.492 237.172,93.531 230.888 L 93.575 223.975 92.088 222.327 C 86.445 216.077,71.421 210.186,66.400 212.255 M113.111 218.486 C 111.712 219.660,111.559 223.315,111.528 256.400 L 111.507 279.800 112.914 287.400 C 114.732 297.215,114.900 299.262,114.379 305.243 C 113.551 314.761,114.611 318.196,118.007 316.998 C 118.930 316.672,119.827 316.493,120.001 316.600 C 120.174 316.708,120.427 316.506,120.563 316.152 C 120.716 315.754,121.103 315.586,121.579 315.710 C 122.022 315.826,122.439 315.676,122.562 315.356 C 122.679 315.050,123.045 314.800,123.375 314.800 C 123.705 314.800,124.656 314.416,125.488 313.947 C 126.320 313.478,128.119 312.499,129.486 311.772 C 130.854 311.045,132.789 309.972,133.786 309.387 C 134.784 308.802,135.600 308.465,135.600 308.638 C 135.600 308.811,135.825 308.673,136.100 308.330 C 136.676 307.613,142.249 304.000,142.779 304.000 C 142.974 304.000,143.193 303.839,143.267 303.642 C 143.340 303.445,143.969 302.950,144.663 302.542 C 145.358 302.134,147.456 300.765,149.325 299.500 C 151.194 298.235,152.844 297.200,152.990 297.200 C 153.137 297.200,153.529 296.928,153.861 296.596 C 154.193 296.264,154.675 296.113,154.932 296.260 C 155.190 296.408,155.273 296.387,155.118 296.215 C 154.855 295.923,159.042 292.803,159.700 292.801 C 160.504 292.798,159.813 294.333,158.113 296.322 C 154.348 300.730,148.202 306.705,147.644 306.500 C 147.287 306.369,147.195 306.468,147.386 306.778 C 147.759 307.381,143.709 311.315,143.102 310.940 C 142.850 310.783,142.794 310.866,142.965 311.143 C 143.133 311.415,142.486 312.508,141.420 313.756 C 138.969 316.625,139.589 317.742,145.009 320.221 C 152.068 323.450,151.616 323.695,164.252 309.781 C 166.041 307.812,168.111 305.556,168.852 304.769 C 169.594 303.982,170.560 302.825,171.000 302.198 C 171.440 301.570,172.160 300.663,172.600 300.182 C 173.040 299.700,173.580 299.034,173.800 298.700 C 174.020 298.366,174.920 297.066,175.800 295.810 C 178.243 292.325,179.110 290.864,180.672 287.600 C 181.461 285.950,182.218 284.510,182.353 284.400 C 182.697 284.121,182.664 277.635,182.320 277.849 C 182.166 277.944,181.865 277.695,181.651 277.295 C 181.437 276.896,180.753 276.313,180.131 276.001 C 179.509 275.690,178.730 275.242,178.400 275.006 C 177.990 274.714,176.024 274.679,172.200 274.896 C 164.697 275.321,163.901 275.411,162.906 275.943 C 162.437 276.194,161.708 276.400,161.286 276.400 C 160.864 276.400,158.670 276.858,156.410 277.417 C 154.150 277.976,152.204 278.338,152.087 278.220 C 151.970 278.103,151.653 278.190,151.384 278.413 C 150.611 279.055,146.300 280.062,145.347 279.822 C 144.796 279.684,144.401 279.822,144.254 280.203 C 144.115 280.567,143.505 280.800,142.693 280.800 C 141.960 280.800,141.169 280.991,140.936 281.224 C 139.914 282.246,135.366 281.963,133.231 280.744 C 130.292 279.065,130.020 278.166,129.803 269.430 C 129.705 265.453,129.422 261.390,129.174 260.400 C 128.667 258.371,128.915 252.525,129.534 251.906 C 129.756 251.684,129.847 251.267,129.737 250.979 C 129.626 250.691,129.806 249.858,130.135 249.128 C 130.465 248.398,130.832 246.810,130.950 245.600 C 131.502 239.945,131.992 236.603,132.282 236.507 C 133.041 236.256,132.214 227.049,131.280 225.352 C 128.112 219.594,116.857 215.340,113.111 218.486 M92.930 319.355 C 92.012 319.603,91.127 319.940,90.964 320.103 C 90.800 320.266,90.382 320.400,90.033 320.400 C 89.140 320.401,84.800 323.888,84.800 324.606 C 84.800 324.933,84.634 325.200,84.431 325.200 C 84.228 325.200,82.813 326.775,81.287 328.700 C 79.761 330.625,77.156 333.666,75.497 335.458 C 73.770 337.325,72.382 339.204,72.249 339.858 C 71.680 342.640,71.137 346.416,70.936 348.982 C 70.816 350.513,70.540 352.223,70.322 352.782 C 70.105 353.342,69.898 356.125,69.863 358.967 C 69.818 362.698,69.661 364.180,69.300 364.300 C 68.700 364.500,68.636 366.076,69.205 366.645 C 69.439 366.879,69.697 370.577,69.814 375.378 C 69.926 379.958,70.112 383.857,70.227 384.043 C 70.342 384.229,70.605 387.670,70.813 391.691 C 71.021 395.711,71.365 400.710,71.577 402.800 C 71.790 404.890,71.867 407.330,71.748 408.222 C 71.619 409.196,71.805 410.784,72.215 412.192 C 72.682 413.799,72.838 415.378,72.708 417.195 C 72.483 420.339,73.492 421.411,76.798 421.535 C 80.318 421.666,88.800 419.549,88.800 418.538 C 88.800 418.273,89.099 417.758,89.465 417.392 C 89.879 416.978,89.976 416.628,89.723 416.464 C 89.174 416.107,88.820 411.480,88.768 403.991 C 88.745 400.575,88.570 396.975,88.380 395.991 C 88.190 395.006,88.017 390.870,87.996 386.800 C 87.975 382.730,87.772 378.695,87.545 377.833 C 87.036 375.898,86.828 356.652,87.298 355.000 C 87.486 354.340,87.727 352.993,87.833 352.007 C 87.939 351.020,88.201 350.039,88.413 349.827 C 88.626 349.614,88.800 348.943,88.800 348.336 C 88.800 347.728,89.034 347.013,89.320 346.745 C 89.607 346.478,89.770 345.780,89.684 345.194 C 89.595 344.582,89.790 343.867,90.145 343.512 C 90.484 343.173,90.685 342.818,90.590 342.724 C 89.964 342.097,96.786 327.600,97.707 327.600 C 97.942 327.600,98.022 327.488,97.885 327.352 C 97.749 327.215,98.259 326.132,99.019 324.944 C 100.120 323.222,100.400 322.380,100.400 320.792 L 100.400 318.800 97.500 318.852 C 95.905 318.881,93.849 319.107,92.930 319.355 " stroke="none" fill="#056cac" fill-rule="evenodd"></path></g></svg>