<svg width="388.477" height="76.074" viewBox="0 0 388.477 76.074" xmlns="http://www.w3.org/2000/svg"><g id="svgGroup" stroke-linecap="round" fill-rule="evenodd" font-size="9pt" stroke="#000" stroke-width="0.25mm" fill="#000" style="stroke:#000;stroke-width:0.25mm;fill:#000"><path d="M 69.971 5.078 L 69.971 69.678 A 6.403 6.403 0 0 1 69.661 71.685 A 5.954 5.954 0 0 1 69.458 72.217 Q 68.946 73.389 68.091 74.243 A 6.207 6.207 0 0 1 66.065 75.586 A 6.409 6.409 0 0 1 63.574 76.074 A 6.684 6.684 0 0 1 61.598 75.767 A 7.781 7.781 0 0 1 61.206 75.635 Q 60.01 75.195 59.082 74.219 L 12.696 25.781 L 12.696 75.098 L 0 75.098 L 0 10.498 Q 0 8.545 1.099 6.958 A 6.809 6.809 0 0 1 3.906 4.59 A 6.474 6.474 0 0 1 6.359 4.102 A 6.653 6.653 0 0 1 7.617 4.224 A 6.034 6.034 0 0 1 10.889 6.006 L 57.276 54.395 L 57.276 5.078 L 69.971 5.078 Z M 255.42 40.088 L 255.42 75.098 L 242.725 75.098 L 242.725 40.088 A 7.541 7.541 0 0 0 242.596 38.648 Q 242.432 37.807 242.06 37.155 A 3.878 3.878 0 0 0 241.406 36.304 Q 240.304 35.222 238.315 35.045 A 9.177 9.177 0 0 0 237.5 35.01 L 220.996 35.01 L 220.996 75.098 L 208.301 75.098 L 208.301 28.613 A 6.277 6.277 0 0 1 208.695 26.382 A 6.005 6.005 0 0 1 208.789 26.147 Q 209.278 25 210.156 24.146 Q 211.035 23.291 212.207 22.803 A 6.409 6.409 0 0 1 214.698 22.314 L 237.598 22.314 A 17.195 17.195 0 0 1 240.688 22.608 A 22.75 22.75 0 0 1 243.262 23.242 Q 246.289 24.17 249.024 26.221 L 249.024 22.314 L 266.211 22.314 A 17.666 17.666 0 0 1 268.727 22.502 A 21.348 21.348 0 0 1 270.02 22.729 A 19.51 19.51 0 0 1 273.876 23.969 A 21.501 21.501 0 0 1 273.999 24.023 Q 275.977 24.902 277.783 26.294 A 14.926 14.926 0 0 1 280.947 29.648 A 16.285 16.285 0 0 1 280.957 29.663 A 16.251 16.251 0 0 1 282.583 32.671 A 19.737 19.737 0 0 1 283.155 34.229 Q 283.985 36.816 283.985 40.088 L 283.985 75.098 L 271.289 75.098 L 271.289 40.088 A 7.972 7.972 0 0 0 271.168 38.648 Q 270.9 37.193 270.044 36.304 Q 268.799 35.01 266.211 35.01 L 254.785 35.01 Q 255.42 37.354 255.42 40.088 Z M 137.549 39.795 L 137.549 57.617 A 17.285 17.285 0 0 1 137.264 60.67 A 23.113 23.113 0 0 1 136.621 63.306 A 16.999 16.999 0 0 1 133.618 68.97 A 15.856 15.856 0 0 1 129.991 72.276 A 19.604 19.604 0 0 1 128.198 73.34 Q 125.05 74.995 120.624 75.092 A 25.375 25.375 0 0 1 120.069 75.098 L 97.168 75.098 A 17.285 17.285 0 0 1 94.115 74.812 A 23.113 23.113 0 0 1 91.48 74.17 A 16.999 16.999 0 0 1 85.816 71.167 A 15.856 15.856 0 0 1 82.51 67.54 A 19.604 19.604 0 0 1 81.446 65.747 Q 79.791 62.598 79.694 58.173 A 25.375 25.375 0 0 1 79.688 57.617 A 17.294 17.294 0 0 1 79.95 54.692 A 23.362 23.362 0 0 1 80.615 51.904 Q 81.543 48.828 83.618 46.216 A 15.856 15.856 0 0 1 87.246 42.91 A 19.604 19.604 0 0 1 89.038 41.846 Q 92.187 40.191 96.612 40.094 A 25.375 25.375 0 0 1 97.168 40.088 L 120.069 40.088 L 120.069 52.197 L 97.168 52.197 A 6.766 6.766 0 0 0 95.528 52.385 A 4.567 4.567 0 0 0 93.164 53.784 A 5.543 5.543 0 0 0 91.773 57.106 A 7.291 7.291 0 0 0 91.748 57.715 A 6.086 6.086 0 0 0 91.96 59.363 A 4.442 4.442 0 0 0 93.384 61.597 A 5.797 5.797 0 0 0 97.266 62.988 L 120.069 62.988 A 6.867 6.867 0 0 0 121.709 62.804 A 4.581 4.581 0 0 0 124.073 61.426 A 5.422 5.422 0 0 0 125.454 58.233 A 7.197 7.197 0 0 0 125.489 57.52 L 125.489 39.795 A 6.509 6.509 0 0 0 125.272 38.071 A 4.755 4.755 0 0 0 123.95 35.84 Q 122.412 34.375 120.069 34.375 L 92.188 34.375 L 92.188 22.314 L 120.069 22.314 A 17.285 17.285 0 0 1 123.121 22.6 A 23.113 23.113 0 0 1 125.757 23.242 A 16.999 16.999 0 0 1 131.421 26.245 A 15.856 15.856 0 0 1 134.727 29.872 A 19.604 19.604 0 0 1 135.791 31.665 Q 137.446 34.814 137.543 39.239 A 25.375 25.375 0 0 1 137.549 39.795 Z M 196.924 33.105 L 167.578 62.402 L 198.096 62.402 L 198.096 75.098 L 152.295 75.098 Q 150.342 75.098 148.755 73.999 A 6.809 6.809 0 0 1 146.387 71.191 A 6.448 6.448 0 0 1 145.899 68.75 A 6.499 6.499 0 0 1 146.021 67.505 A 6.278 6.278 0 0 1 147.803 64.209 L 177.002 35.01 L 146.485 35.01 L 146.485 22.314 L 192.383 22.314 A 6.302 6.302 0 0 1 195.874 23.34 Q 197.461 24.365 198.194 26.221 Q 198.726 27.451 198.726 28.703 A 6.078 6.078 0 0 1 198.609 29.883 Q 198.242 31.738 196.924 33.105 Z M 353.369 22.314 L 353.369 68.701 A 6.727 6.727 0 0 1 353.1 70.623 A 6.147 6.147 0 0 1 352.881 71.24 A 6.207 6.207 0 0 1 351.538 73.267 Q 350.684 74.121 349.536 74.609 A 6.211 6.211 0 0 1 347.153 75.097 A 7.077 7.077 0 0 1 347.071 75.098 L 318.36 75.098 A 23.261 23.261 0 0 1 315.385 74.898 A 29.064 29.064 0 0 1 313.355 74.561 A 23.623 23.623 0 0 1 308.106 72.827 A 26.992 26.992 0 0 1 303.406 70.028 A 29.956 29.956 0 0 1 303.101 69.8 Q 300.684 67.969 298.877 65.356 A 21.504 21.504 0 0 1 296.728 61.384 A 26.112 26.112 0 0 1 295.972 59.326 A 22.366 22.366 0 0 1 295.084 55.203 A 29.463 29.463 0 0 1 294.873 51.611 L 294.873 22.314 L 307.569 22.314 L 307.569 51.611 A 12.457 12.457 0 0 0 307.81 54.113 A 9.997 9.997 0 0 0 308.423 56.079 A 10.466 10.466 0 0 0 310.468 59.196 A 9.999 9.999 0 0 0 310.742 59.473 Q 312.207 60.889 314.185 61.646 Q 316.162 62.402 318.457 62.402 L 340.674 62.402 L 340.674 22.314 L 353.369 22.314 Z M 388.477 62.402 L 388.477 75.098 L 382.813 75.098 A 18.386 18.386 0 0 1 379.46 74.775 A 23.817 23.817 0 0 1 376.978 74.17 A 17.191 17.191 0 0 1 371.36 71.25 A 19.498 19.498 0 0 1 371.192 71.118 A 15.994 15.994 0 0 1 367.685 67.218 A 19.431 19.431 0 0 1 366.748 65.601 Q 365.155 62.525 365.006 58.187 A 26.488 26.488 0 0 1 364.99 57.275 L 364.99 0 L 377.686 0 L 377.686 57.275 A 6.078 6.078 0 0 0 377.892 58.899 A 4.516 4.516 0 0 0 379.151 61.011 A 5.017 5.017 0 0 0 382.399 62.39 A 6.623 6.623 0 0 0 382.813 62.402 L 388.477 62.402 Z" vector-effect="non-scaling-stroke"/></g></svg>