<svg width="250.5" height="74.501" viewBox="0 0 250.5 74.501" xmlns="http://www.w3.org/2000/svg"><g id="svgGroup" stroke-linecap="round" fill-rule="evenodd" font-size="9pt" stroke="#000" stroke-width="0.25mm" fill="#000" style="stroke:#000;stroke-width:0.25mm;fill:#000"><path d="M 61.5 74.1 L 61.3 74.1 A 3.114 3.114 0 0 1 60.194 73.909 A 2.84 2.84 0 0 1 59.4 73.45 Q 58.6 72.8 57.8 72 A 14.331 14.331 0 0 1 56.546 70.357 Q 55.968 69.485 55.409 68.421 A 31.913 31.913 0 0 1 54.55 66.65 Q 53 63.2 51.7 59.25 A 181.505 181.505 0 0 1 49.617 52.491 A 164.413 164.413 0 0 1 49.35 51.55 L 47.6 45.3 Q 46.6 41.5 45.55 37.75 Q 44.5 34 43.3 30.3 Q 42.1 33 40.15 37 Q 38.2 41 35.8 45.5 Q 33.4 50 30.85 54.4 Q 28.3 58.8 25.9 62.35 A 56.737 56.737 0 0 1 24.297 64.608 Q 23.485 65.691 22.725 66.574 A 24.309 24.309 0 0 1 21.5 67.9 A 33.472 33.472 0 0 1 18.545 70.406 A 43.916 43.916 0 0 1 15.75 72.35 A 14.121 14.121 0 0 1 12.416 73.946 A 11.51 11.51 0 0 1 8.9 74.5 A 8.742 8.742 0 0 1 6.522 74.192 A 6.746 6.746 0 0 1 3.8 72.7 A 10.284 10.284 0 0 1 0.958 68.368 A 12.099 12.099 0 0 1 0.9 68.2 A 17.006 17.006 0 0 1 0 62.885 A 16.21 16.21 0 0 1 0 62.8 Q 0 57.7 2.15 53.15 Q 4.3 48.6 8 45 Q 11.7 41.4 16.1 39.2 A 4.272 4.272 0 0 1 16.734 38.941 Q 17.185 38.8 17.6 38.8 A 0.666 0.666 0 0 1 17.659 38.803 Q 17.762 38.813 17.95 38.85 Q 18.2 38.9 18.2 39.1 A 0.322 0.322 0 0 1 18.125 39.304 Q 18.087 39.353 18.028 39.398 A 0.84 0.84 0 0 1 17.95 39.45 A 8.456 8.456 0 0 1 17.741 39.572 Q 17.645 39.626 17.557 39.671 A 4.761 4.761 0 0 1 17.5 39.7 A 47.223 47.223 0 0 0 11.49 44.227 A 53.788 53.788 0 0 0 10.15 45.45 Q 6.6 48.8 4.35 53 Q 2.1 57.2 2.1 62.1 A 11.59 11.59 0 0 0 3.134 66.839 A 13.829 13.829 0 0 0 3.5 67.6 Q 4.9 70.3 8.3 70.3 A 8.401 8.401 0 0 0 11.277 69.725 Q 12.899 69.114 14.6 67.85 A 32.967 32.967 0 0 0 17.716 65.202 Q 19.216 63.767 20.736 62.012 A 56.973 56.973 0 0 0 21.3 61.35 Q 24.7 57.3 27.95 52.45 Q 31.2 47.6 34 42.75 Q 36.8 37.9 39 33.8 Q 40.685 30.661 41.783 28.519 A 137.239 137.239 0 0 0 42.4 27.3 Q 41.941 25.999 41.218 24.052 A 441.234 441.234 0 0 0 40.75 22.8 A 54.566 54.566 0 0 0 38.606 17.862 A 60.453 60.453 0 0 0 38.25 17.15 A 21.87 21.87 0 0 0 36.583 14.376 A 17.151 17.151 0 0 0 34.9 12.35 Q 33 10.4 30.7 10.4 Q 28.4 10.4 26.6 12 A 20.402 20.402 0 0 0 23.533 15.44 A 22.591 22.591 0 0 0 23.35 15.7 A 250.082 250.082 0 0 0 22.319 17.205 Q 21.506 18.4 20.85 19.4 A 8.46 8.46 0 0 1 20.411 20.014 Q 19.654 20.968 19.041 20.999 A 0.81 0.81 0 0 1 19 21 A 0.183 0.183 0 0 1 18.895 20.971 Q 18.824 20.923 18.806 20.794 A 0.693 0.693 0 0 1 18.8 20.7 A 1.359 1.359 0 0 1 18.81 20.535 Q 18.822 20.435 18.85 20.35 A 1.304 1.304 0 0 0 18.877 20.261 Q 18.888 20.216 18.894 20.176 A 0.519 0.519 0 0 0 18.9 20.1 A 24.473 24.473 0 0 1 27.706 9.632 A 29.486 29.486 0 0 1 28.2 9.3 A 12.898 12.898 0 0 1 29.327 8.464 A 14.225 14.225 0 0 1 29.5 8.35 A 5.743 5.743 0 0 1 30.326 7.906 A 4.706 4.706 0 0 1 30.9 7.7 Q 31.7 7.5 32.4 7.3 A 5.268 5.268 0 0 1 33.555 7.11 A 6.149 6.149 0 0 1 33.9 7.1 Q 36.3 7.1 38.15 8.7 A 13.492 13.492 0 0 1 40.605 11.533 A 16.239 16.239 0 0 1 41.3 12.7 Q 42.6 15.1 43.5 17.65 A 188.597 188.597 0 0 1 44.133 19.471 Q 44.379 20.192 44.596 20.849 A 103.344 103.344 0 0 1 45 22.1 Q 45.153 21.717 45.453 21.071 A 55.555 55.555 0 0 1 45.65 20.65 Q 46.1 19.7 46.7 18.9 A 4.832 4.832 0 0 1 46.951 18.591 Q 47.387 18.1 47.7 18.1 A 0.16 0.16 0 0 1 47.849 18.199 Q 47.889 18.276 47.898 18.416 A 1.347 1.347 0 0 1 47.9 18.5 A 2.71 2.71 0 0 1 47.872 18.865 Q 47.819 19.251 47.666 19.798 A 15.319 15.319 0 0 1 47.5 20.35 Q 47.1 21.6 46.6 22.85 Q 46.217 23.807 45.952 24.383 A 11.199 11.199 0 0 1 45.8 24.7 Q 46.9 28.4 47.8 32.05 Q 48.7 35.7 49.6 39.4 Q 49.906 40.778 50.447 43.124 A 1244.097 1244.097 0 0 0 50.8 44.65 Q 51.6 48.1 52.75 52.15 Q 53.9 56.2 55.3 60.1 A 46.863 46.863 0 0 0 56.573 63.293 Q 57.422 65.203 58.35 66.75 A 13.874 13.874 0 0 0 59.29 68.135 Q 60.413 69.577 61.602 70.117 A 3.901 3.901 0 0 0 61.8 70.2 A 0.67 0.67 0 0 0 61.932 70.247 Q 62.137 70.3 62.5 70.3 A 3.016 3.016 0 0 0 63.761 70.044 Q 64.492 69.712 65 68.95 A 17.577 17.577 0 0 0 65.946 67.365 A 14.264 14.264 0 0 0 66.45 66.3 A 8.324 8.324 0 0 1 66.651 65.858 Q 66.962 65.23 67.219 65.062 A 0.332 0.332 0 0 1 67.4 65 A 0.249 0.249 0 0 1 67.638 65.149 Q 67.7 65.273 67.7 65.5 A 0.391 0.391 0 0 1 67.691 65.563 Q 67.65 65.774 67.415 66.598 A 83.293 83.293 0 0 1 67.4 66.65 A 34.049 34.049 0 0 0 67.298 67.014 Q 67.1 67.738 67.1 67.9 A 17.925 17.925 0 0 1 66.751 68.782 Q 66.585 69.172 66.385 69.602 A 36.172 36.172 0 0 1 65.95 70.5 Q 65.2 72 64.1 73.05 Q 63 74.1 61.5 74.1 Z M 143.1 45.4 L 144.2 42.5 A 0.221 0.221 0 0 0 144.171 42.384 Q 144.075 42.223 143.65 42.3 A 1.396 1.396 0 0 1 143.571 42.312 Q 143.151 42.364 143.106 42.075 A 0.484 0.484 0 0 1 143.1 42 A 0.366 0.366 0 0 1 143.13 41.885 Q 143.236 41.609 143.716 40.827 A 38.813 38.813 0 0 1 143.95 40.45 A 507.687 507.687 0 0 0 145.476 38.011 A 561.172 561.172 0 0 0 145.7 37.65 A 394.012 394.012 0 0 1 146.013 37.147 Q 146.588 36.223 146.772 35.944 A 6.577 6.577 0 0 1 146.8 35.9 A 1.783 1.783 0 0 1 147.12 35.549 Q 147.476 35.24 148.096 34.932 A 9.839 9.839 0 0 1 148.6 34.7 Q 149.677 34.239 150.34 34.132 A 2.29 2.29 0 0 1 150.7 34.1 A 1.619 1.619 0 0 1 151.078 34.14 Q 151.583 34.262 151.678 34.752 A 1.301 1.301 0 0 1 151.7 35 Q 151.7 35.256 151.012 36.923 A 83.163 83.163 0 0 1 150.75 37.55 A 1285.881 1285.881 0 0 1 149.988 39.35 Q 149.651 40.147 149.279 41.022 A 2336.002 2336.002 0 0 1 148.5 42.85 Q 147.2 45.9 146.1 48.55 A 90.09 90.09 0 0 0 145.607 49.761 Q 144.926 51.471 144.7 52.3 Q 145.486 51.318 147.235 49.421 A 153.723 153.723 0 0 1 147.3 49.35 Q 149.1 47.4 151.4 45.1 Q 153.7 42.8 156.1 40.7 A 65.25 65.25 0 0 1 157.837 39.231 Q 158.708 38.52 159.511 37.924 A 35.046 35.046 0 0 1 160.45 37.25 A 14.125 14.125 0 0 1 161.371 36.66 Q 162.675 35.9 163.5 35.9 A 1.636 1.636 0 0 1 163.932 35.953 Q 164.433 36.09 164.626 36.583 A 1.402 1.402 0 0 1 164.65 36.65 A 4.944 4.944 0 0 1 164.859 37.523 A 4.129 4.129 0 0 1 164.9 38.1 Q 164.9 40 164.05 42.9 Q 163.2 45.8 162.1 48.7 Q 161.116 51.294 160.372 53.008 A 49.145 49.145 0 0 1 160.2 53.4 Q 162.2 51.7 164.55 49.45 Q 166.9 47.2 169.1 44.8 A 46.821 46.821 0 0 0 170.872 42.758 Q 171.913 41.482 172.7 40.3 A 3.043 3.043 0 0 1 173.3 39.721 A 2.183 2.183 0 0 1 174.6 39.3 A 3.184 3.184 0 0 1 175.418 39.396 Q 176.7 39.738 176.7 41.3 A 4.264 4.264 0 0 1 176.646 41.937 Q 176.543 42.607 176.249 43.551 A 22.958 22.958 0 0 1 176 44.3 A 10.289 10.289 0 0 1 175.644 45.194 Q 175.245 46.062 174.789 46.505 A 1.851 1.851 0 0 1 174.4 46.8 A 76.48 76.48 0 0 0 173.551 50.87 A 83.276 83.276 0 0 0 173.5 51.15 Q 173.1 53.4 173.1 55.7 Q 173.1 56.389 173.217 57.284 A 20.26 20.26 0 0 0 173.3 57.85 Q 173.5 59.1 174.1 60.05 A 1.928 1.928 0 0 0 175.488 60.97 A 2.666 2.666 0 0 0 175.9 61 Q 177.262 61 178.718 60.149 A 8.385 8.385 0 0 0 178.8 60.1 Q 180.3 59.2 181.7 57.95 A 1121.566 1121.566 0 0 0 182.694 57.062 Q 183.085 56.712 183.436 56.397 A 582.386 582.386 0 0 0 184.1 55.8 Q 185.1 54.9 185.4 54.9 Q 185.6 54.9 185.6 55.1 Q 185.6 55.4 185.4 55.85 Q 185.215 56.267 185.03 56.469 A 0.97 0.97 0 0 1 185 56.5 Q 183.5 59 180.45 61.3 A 12.852 12.852 0 0 1 178.06 62.746 A 8.98 8.98 0 0 1 174.3 63.6 A 8.062 8.062 0 0 1 172.602 63.434 Q 171.603 63.219 170.87 62.723 A 3.996 3.996 0 0 1 169.7 61.5 A 8.582 8.582 0 0 1 168.54 58.317 A 11.374 11.374 0 0 1 168.4 56.5 A 21.427 21.427 0 0 1 169.235 50.644 A 23.97 23.97 0 0 1 169.35 50.25 A 130.648 130.648 0 0 1 170.742 45.903 A 112.115 112.115 0 0 1 171.3 44.3 Q 168.8 47.4 165.9 50.35 Q 163 53.3 160.1 56 A 11.301 11.301 0 0 1 159.209 58.035 Q 158.691 58.972 157.964 59.943 A 21.272 21.272 0 0 1 157.45 60.6 A 7.55 7.55 0 0 1 156.033 61.967 A 5.222 5.222 0 0 1 152.9 63 A 0.413 0.413 0 0 1 152.845 62.995 Q 152.724 62.978 152.45 62.9 Q 152.105 62.802 152.1 62.508 A 0.506 0.506 0 0 1 152.1 62.5 L 152.1 62.4 A 0.144 0.144 0 0 1 152.105 62.361 Q 152.118 62.316 152.163 62.305 A 0.147 0.147 0 0 1 152.2 62.3 A 71.587 71.587 0 0 1 152.788 60.763 Q 153.06 60.075 153.375 59.31 A 147.494 147.494 0 0 1 154.05 57.7 Q 155.2 55 156.45 52 A 73.47 73.47 0 0 0 157.841 48.411 A 59.667 59.667 0 0 0 158.55 46.3 Q 159.4 43.6 159.4 41.8 Q 159.4 41.571 159.371 41.282 A 7.954 7.954 0 0 0 159.35 41.1 Q 159.3 40.7 158.8 40.7 Q 157.914 40.7 156.3 42.107 A 15.965 15.965 0 0 0 156.25 42.15 A 31.753 31.753 0 0 0 154.963 43.35 Q 154.268 44.034 153.518 44.84 A 60.846 60.846 0 0 0 152.6 45.85 Q 150.6 48.1 148.65 50.5 Q 146.83 52.741 145.401 54.589 A 150.852 150.852 0 0 0 145.2 54.85 A 104.632 104.632 0 0 0 144.532 55.727 Q 143.579 56.994 143.2 57.6 Q 141.6 59.9 140.3 62.4 A 1.158 1.158 0 0 1 140.12 62.693 Q 139.908 62.955 139.498 63.252 A 7.511 7.511 0 0 1 139.05 63.55 Q 138 64.2 136.85 64.65 Q 135.7 65.1 135.1 65.1 A 1.052 1.052 0 0 1 134.877 65.079 Q 134.556 65.009 134.508 64.711 A 0.702 0.702 0 0 1 134.5 64.6 Q 137.2 60 139.2 55.15 Q 141.2 50.3 143.1 45.4 Z M 189.8 43.7 L 189.6 43.7 A 1.052 1.052 0 0 1 189.377 43.679 Q 189.056 43.609 189.008 43.311 A 0.702 0.702 0 0 1 189 43.2 A 1.287 1.287 0 0 1 189.004 43.096 Q 189.014 42.972 189.05 42.9 A 0.482 0.482 0 0 0 189.091 42.788 A 0.408 0.408 0 0 0 189.1 42.7 A 124.79 124.79 0 0 0 190.08 40.992 Q 190.838 39.644 191.4 38.55 A 7.107 7.107 0 0 1 192.488 36.972 A 5.923 5.923 0 0 1 193.8 35.9 A 5.053 5.053 0 0 1 194.957 35.407 Q 196.126 35.057 197.829 35.008 A 19.836 19.836 0 0 1 198.4 35 A 0.589 0.589 0 0 1 198.616 35.037 Q 198.873 35.137 198.898 35.517 A 1.292 1.292 0 0 1 198.9 35.6 A 1.622 1.622 0 0 1 198.84 35.997 Q 198.676 36.629 198.066 37.768 A 25.224 25.224 0 0 1 197.8 38.25 Q 196.7 40.2 195.4 42.1 Q 194.203 43.85 193.684 44.667 A 22.014 22.014 0 0 0 193.6 44.8 A 19.6 19.6 0 0 0 193.09 45.687 Q 192.444 46.872 191.6 48.7 Q 190.4 51.3 189.45 53.9 Q 188.627 56.154 188.517 57.581 A 5.478 5.478 0 0 0 188.5 58 A 2.988 2.988 0 0 0 188.646 58.936 A 2.838 2.838 0 0 0 188.65 58.95 A 0.603 0.603 0 0 0 189.066 59.355 Q 189.21 59.4 189.4 59.4 A 2.612 2.612 0 0 0 190.21 59.261 Q 190.895 59.037 191.694 58.455 A 8.675 8.675 0 0 0 191.7 58.45 Q 193 57.5 193.7 56.9 Q 197.6 53.6 200.9 49.45 Q 204.2 45.3 206.9 41 A 3.34 3.34 0 0 0 207.083 40.564 Q 207.164 40.323 207.189 40.099 A 1.776 1.776 0 0 0 207.2 39.9 Q 207.5 38.7 208.1 37.6 Q 208.7 36.5 209.7 35.8 Q 210.281 35.437 211.179 35.179 A 10.884 10.884 0 0 1 211.9 35 Q 213.161 34.73 213.935 34.703 A 4.764 4.764 0 0 1 214.1 34.7 Q 214.372 34.7 214.736 34.77 A 6.558 6.558 0 0 1 215.1 34.85 A 1.183 1.183 0 0 1 215.354 34.943 Q 215.691 35.116 215.7 35.48 A 0.816 0.816 0 0 1 215.7 35.5 Q 215.7 36 214.85 37.1 Q 214 38.2 213.05 39.25 A 18.774 18.774 0 0 0 212.522 39.858 Q 212.055 40.421 211.784 40.86 A 4.744 4.744 0 0 0 211.7 41 A 10.171 10.171 0 0 0 211.157 42.142 Q 210.662 43.355 210.237 45.074 A 35.375 35.375 0 0 0 210.1 45.65 Q 209.4 48.7 209 51.8 A 62.801 62.801 0 0 0 208.772 53.802 Q 208.6 55.588 208.6 56.9 A 13.371 13.371 0 0 0 208.674 58.264 Q 208.744 58.948 208.882 59.7 A 21.896 21.896 0 0 0 208.9 59.8 A 2.347 2.347 0 0 0 209.158 60.537 Q 209.528 61.185 210.323 61.346 A 2.895 2.895 0 0 0 210.9 61.4 A 4.74 4.74 0 0 0 212.775 60.997 Q 213.41 60.725 214.053 60.27 A 8.954 8.954 0 0 0 214.35 60.05 A 31.013 31.013 0 0 0 216.165 58.542 A 24.2 24.2 0 0 0 217.4 57.35 A 40.739 40.739 0 0 1 217.708 57.034 Q 218.722 56.004 218.899 56 A 0.062 0.062 0 0 1 218.9 56 Q 218.989 56 218.999 56.158 A 0.673 0.673 0 0 1 219 56.2 Q 219 57.043 218.124 58.148 A 8.026 8.026 0 0 1 218 58.3 Q 217 59.5 215.85 60.55 Q 214.97 61.354 214.412 61.836 A 24.033 24.033 0 0 1 214.1 62.1 A 14.629 14.629 0 0 1 212.131 63.338 A 17.058 17.058 0 0 1 211.4 63.7 Q 209.9 64.4 208.4 64.4 A 5.17 5.17 0 0 1 207.062 64.24 Q 205.493 63.819 204.87 62.299 A 4.218 4.218 0 0 1 204.85 62.25 Q 204 60.1 204 57.9 Q 204 55 204.6 52.1 Q 205.2 49.2 205.4 46.3 L 202 50.55 A 105.624 105.624 0 0 1 199.055 54.066 A 127.69 127.69 0 0 1 197.1 56.25 Q 194.4 59.2 191.8 61.2 Q 189.2 63.2 187.3 63.2 A 5.042 5.042 0 0 1 185.814 63 Q 184.179 62.496 183.752 60.719 A 6.078 6.078 0 0 1 183.6 59.3 A 14.133 14.133 0 0 1 184.119 55.57 A 17.336 17.336 0 0 1 184.65 53.95 Q 185.7 51.2 187.15 48.55 Q 188.6 45.9 189.8 43.7 Z M 106.4 63.6 L 106 63.6 Q 105.844 63.132 105.81 62.846 A 1.235 1.235 0 0 1 105.8 62.7 A 4.004 4.004 0 0 1 105.944 61.604 A 3.203 3.203 0 0 1 106.5 60.5 A 10.11 10.11 0 0 1 106.89 60.035 Q 107.736 59.075 109.65 57.2 Q 112.1 54.8 115.2 51.8 Q 118.3 48.8 121.25 45.9 Q 123.278 43.907 124.834 42.267 A 86.13 86.13 0 0 0 126.15 40.85 A 38.793 38.793 0 0 0 126.811 40.104 Q 128.1 38.607 128.1 38.2 L 128.1 38.15 Q 128.1 38.1 128 38.1 Q 126.9 37.9 125.75 37.8 Q 124.6 37.7 123.5 37.7 Q 121.503 37.7 120.051 38.08 A 7.367 7.367 0 0 0 118.85 38.5 Q 117.702 39.025 116.898 39.55 A 7.684 7.684 0 0 0 116.15 40.1 Q 115.408 40.726 114.879 40.862 A 1.117 1.117 0 0 1 114.6 40.9 L 114.4 40.9 A 0.675 0.675 0 0 1 114.2 40.42 A 0.886 0.886 0 0 1 114.2 40.4 A 1.52 1.52 0 0 1 114.338 39.802 Q 114.648 39.084 115.65 38.15 Q 116.743 37.133 117.41 36.598 A 8.958 8.958 0 0 1 117.8 36.3 Q 118.9 36 120 35.95 Q 121.1 35.9 122.2 35.9 Q 124.3 35.9 126.4 35.95 Q 128.5 36 130.5 36 Q 131.9 36 133.3 35.95 Q 134.7 35.9 136 35.9 A 2.352 2.352 0 0 1 136.434 35.937 Q 137.157 36.073 137.198 36.72 A 1.262 1.262 0 0 1 137.2 36.8 Q 137.2 37.453 136.7 38.185 A 5.328 5.328 0 0 1 136.25 38.75 Q 135.3 39.8 134 40.55 A 13.338 13.338 0 0 1 133.227 40.965 Q 132.446 41.35 131.841 41.491 A 3.845 3.845 0 0 1 131.8 41.5 A 55.429 55.429 0 0 0 129.527 43.244 Q 127.55 44.838 125.3 46.9 Q 121.7 50.2 118.3 53.75 Q 115.564 56.607 113.541 59.043 A 65.661 65.661 0 0 0 112.6 60.2 A 28.186 28.186 0 0 1 114.123 59.868 Q 115.717 59.563 117.85 59.3 Q 121.1 58.9 124.45 58.65 Q 127.313 58.437 129.19 58.406 A 36.929 36.929 0 0 1 129.8 58.4 Q 130.6 58.4 132.25 58.6 A 3.173 3.173 0 0 1 132.893 58.74 Q 133.9 59.085 133.9 60.1 A 1.428 1.428 0 0 1 133.842 60.478 Q 133.74 60.843 133.463 61.337 A 9.105 9.105 0 0 1 133.15 61.85 Q 132.4 63 131.35 64.3 Q 130.3 65.6 129.35 66.5 Q 128.563 67.246 128.154 67.374 A 0.52 0.52 0 0 1 128 67.4 A 0.453 0.453 0 0 1 127.825 67.369 Q 127.6 67.275 127.6 66.9 A 1.048 1.048 0 0 1 127.765 66.349 Q 127.869 66.179 128.037 66.013 A 2.865 2.865 0 0 1 128.35 65.75 A 37.941 37.941 0 0 0 129.454 64.908 A 44.217 44.217 0 0 0 129.9 64.55 Q 130.386 64.156 130.577 63.743 A 1.282 1.282 0 0 0 130.7 63.2 A 0.68 0.68 0 0 0 130.36 62.601 Q 130.233 62.519 130.06 62.46 A 2.206 2.206 0 0 0 129.85 62.4 Q 129 62.2 128.1 62.15 Q 127.271 62.104 126.867 62.101 A 7.394 7.394 0 0 0 126.8 62.1 Q 123.1 62.1 119.3 62.4 Q 115.5 62.7 111.7 63.1 Q 110.4 63.2 109.05 63.4 Q 107.7 63.6 106.4 63.6 Z M 218 63.8 Q 215.2 63.8 215.2 60.9 A 8.648 8.648 0 0 1 215.342 59.38 A 11.491 11.491 0 0 1 215.65 58.1 Q 216.1 56.6 216.5 55.4 A 144.572 144.572 0 0 1 220.344 46.396 A 176.932 176.932 0 0 1 223.1 40.75 Q 227 33.1 231.4 25.75 Q 235.8 18.4 240 12.2 Q 239.843 11.572 239.809 11.067 A 4.008 4.008 0 0 1 239.8 10.8 Q 239.8 10.475 239.843 10.234 A 1.641 1.641 0 0 1 239.9 10 Q 240.2 9.6 241 8.3 Q 241.8 7 242.65 5.75 A 67.894 67.894 0 0 1 242.946 5.318 Q 243.505 4.51 243.681 4.32 A 0.742 0.742 0 0 1 243.7 4.3 Q 244.139 3.773 245.312 3.478 A 8.09 8.09 0 0 1 245.65 3.4 A 22.01 22.01 0 0 1 246.414 3.255 Q 247.156 3.129 247.675 3.106 A 5 5 0 0 1 247.9 3.1 Q 248.28 3.1 248.977 3.187 A 26.059 26.059 0 0 1 249.45 3.25 Q 249.909 3.316 250.167 3.486 A 0.696 0.696 0 0 1 250.5 4.1 A 1.374 1.374 0 0 1 250.497 4.195 Q 250.487 4.336 250.445 4.38 A 0.06 0.06 0 0 1 250.4 4.4 Q 248.8 6.7 247.15 9.05 Q 245.5 11.4 243.9 13.7 Q 238.1 22.4 233.05 31.45 Q 228 40.5 223.4 49.8 A 32.69 32.69 0 0 0 222.704 51.202 Q 222.405 51.839 222.092 52.563 A 68.165 68.165 0 0 0 221.45 54.1 A 18.181 18.181 0 0 0 220.852 55.805 Q 220.598 56.675 220.487 57.45 A 8.1 8.1 0 0 0 220.4 58.6 A 3.531 3.531 0 0 0 220.462 59.294 Q 220.68 60.376 221.664 60.487 A 2.098 2.098 0 0 0 221.9 60.5 A 4.505 4.505 0 0 0 223.095 60.328 Q 223.623 60.183 224.193 59.915 A 9.461 9.461 0 0 0 224.8 59.6 Q 226.4 58.7 227.85 57.55 A 112.299 112.299 0 0 0 228.881 56.723 Q 229.288 56.393 229.655 56.087 A 63.257 63.257 0 0 0 230.35 55.5 Q 231.385 54.613 231.691 54.6 A 0.211 0.211 0 0 1 231.7 54.6 A 0.16 0.16 0 0 1 231.849 54.699 Q 231.889 54.776 231.898 54.916 A 1.347 1.347 0 0 1 231.9 55 A 1.238 1.238 0 0 1 231.866 55.275 Q 231.804 55.544 231.632 55.893 A 5.207 5.207 0 0 1 231.55 56.05 A 12.123 12.123 0 0 1 231.3 56.494 Q 231.182 56.693 231.07 56.86 A 5.473 5.473 0 0 1 230.9 57.1 Q 229.1 59.2 225.8 61.1 A 30.883 30.883 0 0 1 223.43 62.34 Q 222.248 62.889 221.173 63.243 A 14.627 14.627 0 0 1 219.9 63.6 Q 219.5 63.7 219 63.75 Q 218.5 63.8 218 63.8 Z M 59.3 62.65 A 1.546 1.546 0 0 0 59.361 62.795 Q 59.557 63.2 59.9 63.2 Q 60.287 63.2 60.494 62.782 A 1.668 1.668 0 0 0 60.6 62.5 A 72.016 72.016 0 0 1 60.631 62.392 Q 60.76 61.944 60.844 61.675 A 9.89 9.89 0 0 1 60.9 61.5 Q 61.4 59.8 61.9 58.25 Q 62.4 56.7 63 55.1 Q 65 49.7 68.15 43.5 Q 71.3 37.3 75.1 31.15 Q 78.9 25 83.15 19.55 A 91.907 91.907 0 0 1 87.124 14.781 A 69.381 69.381 0 0 1 91.6 10.2 A 30.642 30.642 0 0 1 92.303 9.519 A 26.952 26.952 0 0 1 94.45 7.7 A 73.986 73.986 0 0 1 94.815 7.425 A 81.558 81.558 0 0 1 97.5 5.5 A 7.817 7.817 0 0 0 97.921 5.184 A 6.647 6.647 0 0 0 99.15 3.9 A 3.346 3.346 0 0 0 99.6 3.039 A 3.737 3.737 0 0 0 99.8 1.8 A 2.817 2.817 0 0 0 99.731 1.145 Q 99.456 0 98.1 0 Q 96.5 0 95.2 0.95 A 12.979 12.979 0 0 0 95.038 1.07 A 13.915 13.915 0 0 0 92.8 3.2 A 19.858 19.858 0 0 1 91.803 4.296 A 15.127 15.127 0 0 1 90.6 5.4 Q 89 6.7 87 7.15 Q 85 7.6 83 7.6 Q 82.1 7.6 82.1 8.3 Q 82.1 8.9 82.8 8.9 A 19.436 19.436 0 0 0 83.018 8.899 A 17.608 17.608 0 0 0 85.5 8.7 Q 86.8 8.5 88 8 A 94.821 94.821 0 0 0 84.088 12.566 A 110.267 110.267 0 0 0 76.1 23.95 Q 70.6 32.9 66.3 42.55 A 186.281 186.281 0 0 0 64 47.935 A 159.257 159.257 0 0 0 59.2 61.3 Q 59.138 61.425 59.114 61.589 A 1.494 1.494 0 0 0 59.1 61.8 A 1.127 1.127 0 0 0 59.107 61.919 Q 59.137 62.201 59.3 62.65 Z M 96.1 64.4 Q 93.4 64.4 92.5 62.25 A 11.285 11.285 0 0 1 91.614 58.449 A 10.722 10.722 0 0 1 91.6 57.9 Q 91.6 55.4 92 52.9 Q 92.4 50.4 92.9 48 A 20.521 20.521 0 0 1 92.159 49.159 Q 91.346 50.349 90.115 51.887 A 76.156 76.156 0 0 1 89.7 52.4 A 76.036 76.036 0 0 1 86.279 56.307 A 88.494 88.494 0 0 1 84.8 57.85 A 39.08 39.08 0 0 1 81.747 60.659 A 31.153 31.153 0 0 1 79.35 62.45 A 15.036 15.036 0 0 1 77.735 63.406 Q 76.903 63.825 76.14 64.048 A 5.855 5.855 0 0 1 74.5 64.3 Q 73.828 64.3 73.422 64.049 A 1.191 1.191 0 0 1 72.95 63.5 A 4.168 4.168 0 0 1 72.634 62.306 A 5.223 5.223 0 0 1 72.6 61.7 A 11.511 11.511 0 0 1 72.718 60.127 Q 72.831 59.313 73.052 58.382 A 29.265 29.265 0 0 1 73.6 56.4 Q 74.6 53.2 76.4 49.65 A 44.449 44.449 0 0 1 80.162 43.489 A 40.94 40.94 0 0 1 80.45 43.1 Q 82.7 40.1 85.15 38.25 A 9.304 9.304 0 0 1 86.884 37.201 Q 88.481 36.471 90.1 36.6 A 19.039 19.039 0 0 1 91.707 35.823 A 22.337 22.337 0 0 1 92.5 35.5 A 7.36 7.36 0 0 1 94.531 35.024 A 6.781 6.781 0 0 1 95.1 35 A 14.408 14.408 0 0 1 97.019 35.132 A 15.809 15.809 0 0 1 97.15 35.15 Q 98.2 35.3 99.2 35.5 Q 99.7 35.3 100.3 35.1 A 3.779 3.779 0 0 1 101.481 34.9 A 3.602 3.602 0 0 1 101.5 34.9 A 1.753 1.753 0 0 1 101.922 34.946 Q 102.473 35.083 102.576 35.627 A 1.463 1.463 0 0 1 102.6 35.9 A 1.615 1.615 0 0 1 102.574 36.164 Q 102.496 36.624 102.185 37.485 A 23.542 23.542 0 0 1 102.05 37.85 A 26.283 26.283 0 0 1 101.188 39.872 A 22.77 22.77 0 0 1 100.85 40.55 A 12.164 12.164 0 0 1 100.615 40.982 Q 100.218 41.676 99.929 41.914 A 0.693 0.693 0 0 1 99.8 42 A 18.467 18.467 0 0 0 99.139 43.498 Q 98.819 44.312 98.513 45.271 A 40.52 40.52 0 0 0 98.1 46.65 Q 97.3 49.5 96.8 52.5 A 44.533 44.533 0 0 0 96.496 54.624 Q 96.3 56.288 96.3 57.6 A 8.188 8.188 0 0 0 96.382 58.725 Q 96.459 59.275 96.607 59.877 A 13.772 13.772 0 0 0 96.65 60.05 A 1.999 1.999 0 0 0 96.959 60.733 Q 97.446 61.4 98.5 61.4 A 4.74 4.74 0 0 0 100.375 60.997 Q 101.01 60.725 101.653 60.27 A 8.954 8.954 0 0 0 101.95 60.05 A 31.013 31.013 0 0 0 103.765 58.542 A 24.2 24.2 0 0 0 105 57.35 A 40.739 40.739 0 0 1 105.308 57.034 Q 106.322 56.004 106.499 56 A 0.062 0.062 0 0 1 106.5 56 Q 106.7 56 106.7 56.2 Q 106.7 57.043 105.824 58.148 A 8.026 8.026 0 0 1 105.7 58.3 Q 104.7 59.5 103.5 60.55 Q 102.3 61.6 101.7 62.1 A 15.764 15.764 0 0 1 99.409 63.522 A 17.67 17.67 0 0 1 99.05 63.7 A 6.93 6.93 0 0 1 96.94 64.345 A 6.387 6.387 0 0 1 96.1 64.4 Z M 79.143 60.487 A 4.969 4.969 0 0 0 79.2 60.45 A 32.908 32.908 0 0 0 79.531 60.235 Q 79.909 59.986 80.177 59.791 A 9.597 9.597 0 0 0 80.3 59.7 A 36.692 36.692 0 0 0 86.369 54.294 A 30.768 30.768 0 0 0 89.7 49.8 Q 93.1 44.2 96.3 37.8 A 3.335 3.335 0 0 0 95.732 37.581 A 4.089 4.089 0 0 0 95.4 37.5 Q 94.9 37.4 94.4 37.4 A 7.557 7.557 0 0 0 91.375 38.048 A 9.242 9.242 0 0 0 90.65 38.4 A 11.607 11.607 0 0 0 88.775 39.652 A 9.536 9.536 0 0 0 87.6 40.8 A 22.661 22.661 0 0 0 86.048 42.632 Q 85.336 43.562 84.616 44.665 A 43.396 43.396 0 0 0 83.75 46.05 Q 81.8 49.3 80.2 52.75 A 60.437 60.437 0 0 0 79.113 55.232 Q 78.605 56.47 78.219 57.593 A 32.163 32.163 0 0 0 77.8 58.9 L 77.6 59.5 Q 77.5 59.8 77.5 60.2 A 1.452 1.452 0 0 0 77.519 60.447 Q 77.598 60.9 78 60.9 Q 78.48 60.9 79.143 60.487 Z" vector-effect="non-scaling-stroke"/></g></svg>